g Combined_M_Cmn_ami01_Prefab_Mesh
v 140.0731 61.48389 149.7837
v 133.0852 62.74133 152.4974
v 131.5115 60.1546 146.8229
v 137.3246 59.27478 144.5733
v 131.5115 60.1546 146.8229
v 129.9378 57.56818 141.1488
v 134.5757 57.06537 139.3626
v 137.3246 59.27478 144.5733
v 157.6944 49.93526 97.15294
v 157.7024 50.21393 103.4158
v 151.4653 50.26013 103.4125
v 151.4572 49.9433 97.16278
v 151.4653 50.26013 103.4125
v 145.2278 50.30663 103.4092
v 145.2197 49.95135 97.17232
v 151.4572 49.9433 97.16278
v 157.6947 48.9541 97.20778
v 151.4653 49.28134 103.5031
v 157.7024 49.23485 103.5066
v 151.4572 48.96184 97.21762
v 151.4653 49.28134 103.5031
v 145.2197 48.97018 97.22716
v 145.2278 49.32785 103.4998
v 151.4572 48.96184 97.21762
v 157.6959 50.37994 104.7295
v 157.664 51.18526 111.1819
v 151.4271 51.18913 111.0972
v 151.4587 50.41928 104.7122
v 151.4271 51.18913 111.0972
v 145.1902 51.1933 111.0123
v 145.2212 50.45833 104.6947
v 151.4587 50.41928 104.7122
v 157.6956 49.40295 104.8332
v 151.4253 50.21124 111.0722
v 157.6619 50.20708 111.1568
v 151.4581 49.44229 104.8157
v 151.4253 50.21124 111.0722
v 145.2209 49.48134 104.7984
v 145.1884 50.21512 110.9873
v 151.4581 49.44229 104.8157
v 157.6226 51.38911 112.3326
v 157.4229 52.41499 118.8914
v 151.1967 52.30382 118.5257
v 151.3878 51.37332 112.1997
v 151.1967 52.30382 118.5257
v 144.9703 52.19264 118.16
v 145.1527 51.35753 112.0665
v 151.3878 51.37332 112.1997
v 157.619 50.42107 112.5031
v 151.1854 51.33249 118.5552
v 157.4118 51.44336 118.9209
v 151.3839 50.40527 112.3702
v 151.1854 51.33249 118.5552
v 145.1491 50.38948 112.237
v 144.9593 51.22131 118.1895
v 151.3839 50.40527 112.3702
v 157.2572 52.66684 120.1471
v 156.4551 53.90938 126.9207
v 150.333 53.53741 125.747
v 151.0486 52.51096 119.6425
v 150.333 53.53741 125.747
v 144.2109 53.16547 124.573
v 144.8403 52.35509 119.1379
v 151.0486 52.51096 119.6425
v 157.2408 51.70386 120.3426
v 150.2931 52.57683 125.9518
v 156.4152 52.94908 127.1258
v 151.0322 51.54797 119.838
v 150.2931 52.57683 125.9518
v 144.8239 51.39211 119.3334
v 144.1709 52.20517 124.7781
v 151.0322 51.54797 119.838
v 156.0346 54.3484 128.3624
v 154.0028 56.46719 135.3849
v 148.2637 55.4917 132.991
v 149.978 53.87302 126.9783
v 148.2637 55.4917 132.991
v 142.5248 54.51649 130.5968
v 143.9215 53.39734 125.5941
v 149.978 53.87302 126.9783
v 156.0104 53.38899 128.5805
v 148.3176 54.52962 133.123
v 154.0568 55.50511 135.5169
v 149.9539 52.91331 127.1964
v 148.3176 54.52962 133.123
v 143.8973 52.43794 125.812
v 142.5785 53.55441 130.7288
v 149.9539 52.91331 127.1964
v 146.1049 56.74289 136.7875
v 147.6217 55.85591 133.9736
v 153.1617 56.94347 136.6271
v 151.1613 58.09869 140.0627
v 144.3426 57.62987 139.3563
v 148.7697 59.26225 143.4348
v 142.0816 54.76834 131.3201
v 147.6217 55.85591 133.9736
v 146.1049 56.74289 136.7875
v 141.1154 55.38739 133.4008
v 144.3426 57.62987 139.3563
v 139.7655 56.00642 135.2359
v 146.1779 55.78825 137.1001
v 151.2346 57.14375 140.375
v 153.221 55.98854 136.9177
v 147.6813 54.90097 134.2642
v 144.4296 56.67554 139.6904
v 149.0025 58.29898 143.5871
v 142.1412 53.81342 131.6107
v 141.1216 54.43275 133.8249
v 146.1779 55.78825 137.1001
v 147.6813 54.90097 134.2642
v 144.4296 56.67554 139.6904
v 139.8564 55.05179 135.7938
v 147.7957 59.59816 144.2937
v 141.5335 61.21742 149.1969
v 138.5373 59.08731 144.0878
v 143.4944 57.88618 140.1855
v 138.5373 59.08731 144.0878
v 135.5408 56.95747 138.9787
v 139.1927 56.17392 136.077
v 143.4944 57.88618 140.1855
v 147.8637 58.64293 144.6323
v 138.5108 58.12939 144.446
v 141.507 60.25922 149.5551
v 143.562 56.93095 140.5241
v 138.5108 58.12939 144.446
v 139.2607 55.21899 136.4155
v 135.5142 55.99957 139.3373
v 143.562 56.93095 140.5241
v 140.0406 60.52567 150.1491
v 131.4528 59.19521 147.222
v 133.0262 61.78192 152.8962
v 137.2921 58.31627 144.9387
v 131.4528 59.19521 147.222
v 134.5432 56.10716 139.728
v 129.8788 56.60876 141.5476
v 137.2921 58.31627 144.9387
v 131.6191 62.8978 152.7633
v 124.4863 63.61937 153.9629
v 123.9063 60.84219 148.2866
v 130.2204 60.2762 147.0849
v 123.9063 60.84219 148.2866
v 123.3263 58.06471 142.6101
v 128.8219 57.65491 141.4066
v 130.2204 60.2762 147.0849
v 131.5639 61.93781 153.1593
v 124.0166 59.88011 148.6672
v 124.5963 62.65758 154.3435
v 130.1655 59.3165 147.481
v 124.0166 59.88011 148.6672
v 128.7668 56.69521 141.803
v 123.4366 57.10292 142.9907
v 130.1655 59.3165 147.481
v 123.2139 63.72815 154.0326
v 116.3279 64.23692 154.3167
v 116.3285 61.34052 148.5063
v 122.7377 60.92981 148.3337
v 116.3285 61.34052 148.5063
v 116.3288 58.44443 142.6962
v 122.2614 58.13148 142.6354
v 122.7377 60.92981 148.3337
v 123.1743 62.76726 154.4329
v 116.4081 60.38409 149.0091
v 116.4078 63.2802 154.8195
v 122.698 59.96892 148.7343
v 116.4081 60.38409 149.0091
v 122.2217 57.17058 143.0357
v 116.4087 57.4877 143.1987
v 122.698 59.96892 148.7343
v 115.1921 64.30905 154.2651
v 109.1349 64.64256 153.9858
v 109.3 61.70444 148.1993
v 115.2243 61.40491 148.4574
v 109.3 61.70444 148.1993
v 109.4654 58.76631 142.4131
v 115.2567 58.50046 142.65
v 115.2243 61.40491 148.4574
v 115.1328 63.35202 154.7682
v 109.2622 60.74652 148.7
v 109.0968 63.68465 154.4863
v 115.1652 60.44788 148.9605
v 109.2622 60.74652 148.7
v 115.1974 57.54373 143.1531
v 109.4276 57.8084 142.9135
v 115.1652 60.44788 148.9605
vt -1.5 2.5
vt 2.5 2.5
vt 2.5 -1.5
vt -1.5 -1.5
vt -1.5 2.5
vt 2.5 2.5
vt 2.5 -1.5
vt -1.5 -1.5
vt -1.5 2.5
vt 2.5 2.5
vt 2.5 -1.5
vt -1.5 -1.5
vt -1.5 2.5
vt 2.5 2.5
vt 2.5 -1.5
vt -1.5 -1.5
vt -1.5 2.5
vt 2.5 -1.5
vt 2.5 2.5
vt -1.5 -1.5
vt -1.5 2.5
vt 2.5 -1.5
vt 2.5 2.5
vt -1.5 -1.5
vt -1.5 2.5
vt 2.5 2.5
vt 2.5 -1.5
vt -1.5 -1.5
vt -1.5 2.5
vt 2.5 2.5
vt 2.5 -1.5
vt -1.5 -1.5
vt -1.5 2.5
vt 2.5 -1.5
vt 2.5 2.5
vt -1.5 -1.5
vt -1.5 2.5
vt 2.5 -1.5
vt 2.5 2.5
vt -1.5 -1.5
vt -1.5 2.5
vt 2.5 2.5
vt 2.5 -1.5
vt -1.5 -1.5
vt -1.5 2.5
vt 2.5 2.5
vt 2.5 -1.5
vt -1.5 -1.5
vt -1.5 2.5
vt 2.5 -1.5
vt 2.5 2.5
vt -1.5 -1.5
vt -1.5 2.5
vt 2.5 -1.5
vt 2.5 2.5
vt -1.5 -1.5
vt -1.5 2.5
vt 2.5 2.5
vt 2.5 -1.5
vt -1.5 -1.5
vt -1.5 2.5
vt 2.5 2.5
vt 2.5 -1.5
vt -1.5 -1.5
vt -1.5 2.5
vt 2.5 -1.5
vt 2.5 2.5
vt -1.5 -1.5
vt -1.5 2.5
vt 2.5 -1.5
vt 2.5 2.5
vt -1.5 -1.5
vt -1.5 2.5
vt 2.5 2.5
vt 2.5 -1.5
vt -1.5 -1.5
vt -1.5 2.5
vt 2.5 2.5
vt 2.5 -1.5
vt -1.5 -1.5
vt -1.5 2.5
vt 2.5 -1.5
vt 2.5 2.5
vt -1.5 -1.5
vt -1.5 2.5
vt 2.5 -1.5
vt 2.5 2.5
vt -1.5 -1.5
vt 0.5000076 -1.5
vt -1.5 -1.5
vt -1.5 2.5
vt 0.5000076 2.5
vt 2.5 -1.5
vt 2.5 2.5
vt 2.5 -1.5
vt -1.5 -1.5
vt -1.5 0.5000076
vt 2.5 0.5000076
vt -1.5 2.5
vt 2.5 2.5
vt 0.5000076 -1.5
vt 0.5000076 2.5
vt -1.5 2.5
vt -1.5 -1.5
vt 2.5 -1.5
vt 2.5 2.5
vt 2.5 -1.5
vt 2.5 0.5000076
vt -1.5 0.5000076
vt -1.5 -1.5
vt -1.5 2.5
vt 2.5 2.5
vt -1.5 2.5
vt 2.5 2.5
vt 2.5 -1.5
vt -1.5 -1.5
vt -1.5 2.5
vt 2.5 2.5
vt 2.5 -1.5
vt -1.5 -1.5
vt -1.5 2.5
vt 2.5 -1.5
vt 2.5 2.5
vt -1.5 -1.5
vt -1.5 2.5
vt 2.5 -1.5
vt 2.5 2.5
vt -1.5 -1.5
vt -1.5 2.5
vt 2.5 -1.5
vt 2.5 2.5
vt -1.5 -1.5
vt -1.5 2.5
vt 2.5 -1.5
vt 2.5 2.5
vt -1.5 -1.5
vt -1.5 2.5
vt 2.5 2.5
vt 2.5 -1.5
vt -1.5 -1.5
vt -1.5 2.5
vt 2.5 2.5
vt 2.5 -1.5
vt -1.5 -1.5
vt -1.5 2.5
vt 2.5 -1.5
vt 2.5 2.5
vt -1.5 -1.5
vt -1.5 2.5
vt 2.5 -1.5
vt 2.5 2.5
vt -1.5 -1.5
vt -1.5 2.5
vt 2.5 2.5
vt 2.5 -1.5
vt -1.5 -1.5
vt -1.5 2.5
vt 2.5 2.5
vt 2.5 -1.5
vt -1.5 -1.5
vt -1.5 2.5
vt 2.5 -1.5
vt 2.5 2.5
vt -1.5 -1.5
vt -1.5 2.5
vt 2.5 -1.5
vt 2.5 2.5
vt -1.5 -1.5
vt -1.5 2.5
vt 2.5 2.5
vt 2.5 -1.5
vt -1.5 -1.5
vt -1.5 2.5
vt 2.5 2.5
vt 2.5 -1.5
vt -1.5 -1.5
vt -1.5 2.5
vt 2.5 -1.5
vt 2.5 2.5
vt -1.5 -1.5
vt -1.5 2.5
vt 2.5 -1.5
vt 2.5 2.5
vt -1.5 -1.5
vn -0.0341779 0.9149941 -0.402017
vn 0.0478493 0.9091351 -0.4137437
vn 0.0009765625 0.9169472 -0.3990073
vn -0.0341779 0.9228063 -0.3837453
vn 0.0009765625 0.9169472 -0.3990073
vn -0.06933248 0.9130411 -0.4019315
vn 0.0009765625 0.9189003 -0.3944887
vn -0.0341779 0.9228063 -0.3837453
vn 0.002929628 0.9989744 -0.04518251
vn 0.0009765625 0.9989744 -0.04526686
vn 0.0009765625 0.9989744 -0.04526686
vn 0.0009765625 0.9989744 -0.04526686
vn 0.0009765625 0.9989744 -0.04526686
vn 0.0009765625 0.9989744 -0.04526686
vn 0.0009765625 0.9989744 -0.04526686
vn 0.0009765625 0.9989744 -0.04526686
vn -0.002929449 -0.9989746 0.04517987
vn -0.0009764433 -0.9989746 0.04526423
vn -0.0009764433 -0.9989746 0.04526423
vn -0.0009764433 -0.9989746 0.04526423
vn -0.0009764433 -0.9989746 0.04526423
vn -0.0009764433 -0.9989746 0.04526423
vn -0.0009764433 -0.9989746 0.04526423
vn -0.0009764433 -0.9989746 0.04526423
vn 0.0009765625 0.9931153 -0.1171369
vn 0.0009765625 0.9931153 -0.1171369
vn 0.0009765625 0.9931153 -0.1171369
vn 0.0009765625 0.9931153 -0.1171369
vn 0.0009765625 0.9931153 -0.1171369
vn 0.0009765625 0.9931153 -0.1171369
vn 0.0009765625 0.9931153 -0.1171369
vn 0.0009765625 0.9931153 -0.1171369
vn -0.0009764433 -0.9931155 0.1171354
vn -0.0009764433 -0.9931155 0.1171354
vn -0.04394305 -0.9911624 0.1251642
vn -0.0009764433 -0.9931155 0.1171354
vn -0.0009764433 -0.9931155 0.1171354
vn -0.0009764433 -0.9931155 0.1171354
vn -0.0009764433 -0.9931155 0.1171354
vn -0.0009764433 -0.9931155 0.1171354
vn -0.0341779 0.9872563 -0.1554248
vn -0.01855373 0.9872563 -0.1580531
vn 0.0009765625 0.9892093 -0.1465059
vn 0.0009765625 0.9892093 -0.1465059
vn 0.0009765625 0.9892093 -0.1465059
vn 0.0009765625 0.9911623 -0.1326513
vn 0.0009765625 0.9892093 -0.1465059
vn 0.0009765625 0.9892093 -0.1465059
vn 0.02636594 -0.9872564 0.1569382
vn 0.04003716 -0.9872564 0.1540189
vn -0.0009764433 -0.9872564 0.1591346
vn -0.04003704 -0.9872564 0.1540189
vn 0.04003716 -0.9872564 0.1540189
vn -0.0009764433 -0.9892094 0.1465053
vn -0.0009764433 -0.9911624 0.1326504
vn -0.04003704 -0.9872564 0.1540189
vn 0.0009765625 0.9853032 -0.1708119
vn -0.03222489 0.9833502 -0.1788408
vn -0.02441275 0.9853032 -0.1690612
vn -0.0341779 0.9853032 -0.1673605
vn -0.02441275 0.9853032 -0.1690612
vn -0.0341779 0.9872563 -0.1554248
vn 0.0009765625 0.9872563 -0.1591353
vn -0.0341779 0.9853032 -0.1673605
vn -0.0009764433 -0.9853033 0.1708109
vn 0.02441293 -0.9853033 0.1690601
vn 0.03222507 -0.9833503 0.1788398
vn 0.03417808 -0.9853033 0.1673594
vn 0.02441293 -0.9853033 0.1690601
vn -0.0009764433 -0.9872564 0.1591346
vn 0.03417808 -0.9872564 0.155424
vn 0.03417808 -0.9853033 0.1673594
vn -0.04784918 0.9579608 -0.2828807
vn -0.04784918 0.9540547 -0.2957872
vn 0.0009765625 0.9618669 -0.2735164
vn 0.0009765625 0.9638199 -0.2665527
vn 0.0009765625 0.9618669 -0.2735164
vn -0.05566132 0.969679 -0.237959
vn -0.02831888 0.967726 -0.2504086
vn 0.0009765625 0.9638199 -0.2665527
vn 0.02050686 -0.957961 0.2861648
vn 0.04589623 -0.959914 0.2765116
vn 0.01660085 -0.9540549 0.2991716
vn 0.04199022 -0.96382 0.2632257
vn 0.04589623 -0.959914 0.2765116
vn 0.002929628 -0.9677261 0.2519873
vn 0.07909775 -0.9677261 0.2392692
vn 0.04199022 -0.96382 0.2632257
vn -0.04589617 0.9423366 -0.3315047
vn -0.0341779 0.9462427 -0.3216467
vn -0.02441275 0.9442896 -0.3282091
vn 0.0009765625 0.9423366 -0.3346653
vn -0.0126946 0.9403836 -0.3398788
vn -0.05175519 0.9384305 -0.3415692
vn -0.04003704 0.9481957 -0.3151539
vn -0.0341779 0.9462427 -0.3216467
vn -0.04589617 0.9423366 -0.3315047
vn -0.05175519 0.9442896 -0.325021
vn -0.0126946 0.9403836 -0.3398788
vn -0.03613102 0.9403836 -0.3381913
vn 0.05566138 -0.9423367 0.330005
vn 0.0498023 -0.9403837 0.3364495
vn 0.04003716 -0.9442897 0.326671
vn 0.05761445 -0.9462427 0.3182847
vn 0.04003716 -0.9384307 0.3431398
vn -0.0009764433 -0.9364776 0.350726
vn 0.03222507 -0.9501488 0.310127
vn 0.03417808 -0.9462427 0.3216465
vn 0.05566138 -0.9423367 0.330005
vn 0.05761445 -0.9462427 0.3182847
vn 0.04003716 -0.9384307 0.3431398
vn 0.0498023 -0.9403837 0.3364495
vn -0.0537082 0.9325714 -0.3569677
vn -0.04199004 0.9306184 -0.3635742
vn -0.04199004 0.9345244 -0.3534133
vn -0.05175519 0.9384305 -0.3415692
vn -0.04199004 0.9345244 -0.3534133
vn -0.07128549 0.9364775 -0.3434068
vn -0.04003704 0.9384305 -0.3431402
vn -0.05175519 0.9384305 -0.3415692
vn 0.02245992 -0.9345246 0.3551892
vn 0.04199022 -0.9345246 0.3534128
vn 0.04199022 -0.9306185 0.3635739
vn 0.05175537 -0.9384307 0.3415688
vn 0.04199022 -0.9345246 0.3534128
vn 0.04003716 -0.9384307 0.3431398
vn 0.07128567 -0.9364776 0.3434065
vn 0.05175537 -0.9384307 0.3415688
vn 0.03417808 -0.9149943 0.4020165
vn 0.01855385 -0.9169473 0.3985767
vn -0.0009764433 -0.9091352 0.4164999
vn 0.0498023 -0.9228064 0.3820314
vn 0.01855385 -0.9169473 0.3985767
vn 0.028319 -0.9189004 0.3934719
vn 0.03417808 -0.9149943 0.4020165
vn 0.0498023 -0.9228064 0.3820314
vn 0.03613108 0.901323 -0.4316382
vn 0.0009765625 0.8974169 -0.4411824
vn 0.03613108 0.901323 -0.4316382
vn 0.0009765625 0.9091351 -0.4165002
vn 0.03613108 0.901323 -0.4316382
vn 0.0009765625 0.89937 -0.4371873
vn 0.0009765625 0.903276 -0.4290589
vn 0.0009765625 0.9091351 -0.4165002
vn -0.03613102 -0.9013231 0.4316379
vn -0.03613102 -0.9013231 0.4316379
vn -0.0009764433 -0.8974171 0.4411821
vn 0.03613108 -0.9071822 0.4191837
vn -0.03613102 -0.9013231 0.4316379
vn -0.0009764433 -0.9032761 0.4290586
vn -0.0009764433 -0.8993701 0.4371871
vn 0.03613108 -0.9071822 0.4191837
vn 0.05761445 0.8935108 -0.4453302
vn 0.05761445 0.8935108 -0.4453302
vn 0.0009765625 0.8954638 -0.4451332
vn 0.03613108 0.8954638 -0.4436655
vn 0.0009765625 0.8954638 -0.4451332
vn 0.05761445 0.8935108 -0.4453302
vn 0.0009765625 0.8954638 -0.4451332
vn 0.03613108 0.8954638 -0.4436655
vn -0.0009764433 -0.895464 0.4451329
vn -0.0009764433 -0.895464 0.4451329
vn -0.05761433 -0.893511 0.4453299
vn -0.03613102 -0.895464 0.4436651
vn -0.0009764433 -0.895464 0.4451329
vn -0.0009764433 -0.895464 0.4451329
vn -0.05761433 -0.893511 0.4453299
vn -0.03613102 -0.895464 0.4436651
vn 0.06152052 0.8915578 -0.4487092
vn 0.07519168 0.8896048 -0.4504991
vn 0.07323867 0.8915578 -0.4469461
vn 0.05761445 0.8935108 -0.4453302
vn 0.07323867 0.8915578 -0.4469461
vn 0.04589623 0.8915578 -0.4505754
vn 0.06152052 0.8915578 -0.4487092
vn 0.05761445 0.8935108 -0.4453302
vn -0.06152034 -0.8915579 0.4487089
vn -0.07323849 -0.8915579 0.4469458
vn -0.07519162 -0.8896049 0.4504989
vn -0.05761433 -0.893511 0.4453299
vn -0.07323849 -0.8915579 0.4469458
vn -0.06152034 -0.8915579 0.4487089
vn -0.04589617 -0.8915579 0.4505751
vn -0.05761433 -0.893511 0.4453299
g Combined_M_Cmn_ami01_Prefab_Mesh_0
f 3/3/3 2/2/2 1/1/1
f 1/1/1 4/4/4 3/3/3
f 7/7/7 6/6/6 5/5/5
f 5/5/5 8/8/8 7/7/7
f 11/11/11 10/10/10 9/9/9
f 9/9/9 12/12/12 11/11/11
f 15/15/15 14/14/14 13/13/13
f 13/13/13 16/16/16 15/15/15
f 19/19/19 18/18/18 17/17/17
f 20/20/20 17/17/17 18/18/18
f 23/23/23 22/22/22 21/21/21
f 24/24/24 21/21/21 22/22/22
f 27/27/27 26/26/26 25/25/25
f 25/25/25 28/28/28 27/27/27
f 31/31/31 30/30/30 29/29/29
f 29/29/29 32/32/32 31/31/31
f 35/35/35 34/34/34 33/33/33
f 36/36/36 33/33/33 34/34/34
f 39/39/39 38/38/38 37/37/37
f 40/40/40 37/37/37 38/38/38
f 43/43/43 42/42/42 41/41/41
f 41/41/41 44/44/44 43/43/43
f 47/47/47 46/46/46 45/45/45
f 45/45/45 48/48/48 47/47/47
f 51/51/51 50/50/50 49/49/49
f 52/52/52 49/49/49 50/50/50
f 55/55/55 54/54/54 53/53/53
f 56/56/56 53/53/53 54/54/54
f 59/59/59 58/58/58 57/57/57
f 57/57/57 60/60/60 59/59/59
f 63/63/63 62/62/62 61/61/61
f 61/61/61 64/64/64 63/63/63
f 67/67/67 66/66/66 65/65/65
f 68/68/68 65/65/65 66/66/66
f 71/71/71 70/70/70 69/69/69
f 72/72/72 69/69/69 70/70/70
f 75/75/75 74/74/74 73/73/73
f 73/73/73 76/76/76 75/75/75
f 79/79/79 78/78/78 77/77/77
f 77/77/77 80/80/80 79/79/79
f 83/83/83 82/82/82 81/81/81
f 84/84/84 81/81/81 82/82/82
f 87/87/87 86/86/86 85/85/85
f 88/88/88 85/85/85 86/86/86
f 91/91/91 90/90/90 89/89/89
f 92/92/92 91/91/91 89/89/89
f 92/92/92 89/89/89 93/93/93
f 94/94/94 92/92/92 93/93/93
f 97/97/97 96/96/96 95/95/95
f 98/98/98 97/97/97 95/95/95
f 99/99/99 97/97/97 98/98/98
f 100/100/100 99/99/99 98/98/98
f 103/103/103 102/102/102 101/101/101
f 104/104/104 103/103/103 101/101/101
f 101/101/101 102/102/102 105/105/105
f 102/102/102 106/106/106 105/105/105
f 109/109/109 108/108/108 107/107/107
f 110/110/110 109/109/109 107/107/107
f 109/109/109 111/111/111 108/108/108
f 111/111/111 112/112/112 108/108/108
f 115/115/115 114/114/114 113/113/113
f 113/113/113 116/116/116 115/115/115
f 119/119/119 118/118/118 117/117/117
f 117/117/117 120/120/120 119/119/119
f 123/123/123 122/122/122 121/121/121
f 124/124/124 121/121/121 122/122/122
f 127/127/127 126/126/126 125/125/125
f 128/128/128 125/125/125 126/126/126
f 131/131/131 130/130/130 129/129/129
f 132/132/132 129/129/129 130/130/130
f 135/135/135 134/134/134 133/133/133
f 136/136/136 133/133/133 134/134/134
f 139/139/139 138/138/138 137/137/137
f 137/137/137 140/140/140 139/139/139
f 143/143/143 142/142/142 141/141/141
f 141/141/141 144/144/144 143/143/143
f 147/147/147 146/146/146 145/145/145
f 148/148/148 145/145/145 146/146/146
f 151/151/151 150/150/150 149/149/149
f 152/152/152 149/149/149 150/150/150
f 155/155/155 154/154/154 153/153/153
f 153/153/153 156/156/156 155/155/155
f 159/159/159 158/158/158 157/157/157
f 157/157/157 160/160/160 159/159/159
f 163/163/163 162/162/162 161/161/161
f 164/164/164 161/161/161 162/162/162
f 167/167/167 166/166/166 165/165/165
f 168/168/168 165/165/165 166/166/166
f 171/171/171 170/170/170 169/169/169
f 169/169/169 172/172/172 171/171/171
f 175/175/175 174/174/174 173/173/173
f 173/173/173 176/176/176 175/175/175
f 179/179/179 178/178/178 177/177/177
f 180/180/180 177/177/177 178/178/178
f 183/183/183 182/182/182 181/181/181
f 184/184/184 181/181/181 182/182/182
