g Combined_M_Cmn_ami01_Prefab_Mesh
v 64.74918 64.82887 -173.5022
v 63.48249 61.13989 -163.6673
v 59.32576 61.13989 -169.8649
v 68.90567 64.82887 -167.3049
v 63.48249 61.13989 -163.6673
v 73.0624 64.82887 -161.1073
v 67.63921 61.13989 -157.4698
v 68.90567 64.82887 -167.3049
v 58.29443 60.43816 -169.1731
v 57.02775 56.74918 -159.3381
v 52.87102 56.74918 -165.5356
v 62.45116 60.43816 -162.9756
v 57.02775 56.74918 -159.3381
v 66.60789 60.43816 -156.7781
v 61.18448 56.74918 -153.1405
v 62.45116 60.43816 -162.9756
v 51.83969 56.04767 -164.8439
v 50.57323 52.35869 -155.009
v 46.4165 52.35869 -161.2063
v 55.99642 56.04767 -158.6463
v 50.57323 52.35869 -155.009
v 60.15314 56.04767 -152.4488
v 54.72997 52.35869 -148.8115
v 55.99642 56.04767 -158.6463
v 45.38518 51.65718 -160.5146
v 44.1185 47.96797 -150.6798
v 39.96176 47.96797 -156.8771
v 49.54168 51.65718 -154.3171
v 44.1185 47.96797 -150.6798
v 53.69863 51.65718 -148.1195
v 48.27522 47.96797 -144.4822
v 49.54168 51.65718 -154.3171
v 38.93044 47.26646 -156.1853
v 37.66376 43.57748 -146.3505
v 33.50702 43.57748 -152.548
v 43.08716 47.26646 -149.988
v 37.66376 43.57748 -146.3505
v 47.2439 47.26646 -143.7903
v 41.82048 43.57748 -140.153
v 43.08716 47.26646 -149.988
v 26.02095 38.48526 -147.5271
v 24.75427 34.79605 -137.692
v 20.59778 34.79605 -143.8895
v 30.17769 38.48526 -141.3295
v 24.75427 34.79605 -137.692
v 34.33441 38.48526 -135.132
v 28.91122 34.79605 -131.4944
v 30.17769 38.48526 -141.3295
v 65.25835 63.78958 -173.8438
v 59.83494 60.1006 -170.2063
v 63.99167 60.1006 -164.009
v 69.41508 63.78958 -167.6463
v 63.99167 60.1006 -164.009
v 68.14839 60.1006 -157.8114
v 73.57181 63.78958 -161.4487
v 69.41508 63.78958 -167.6463
v 58.80361 59.39909 -169.5146
v 53.38042 55.70988 -165.8772
v 57.53716 55.70988 -159.6797
v 62.96033 59.39909 -163.3172
v 57.53716 55.70988 -159.6797
v 61.69388 55.70988 -153.4822
v 67.11707 59.39909 -157.1195
v 62.96033 59.39909 -163.3172
v 52.3491 55.00838 -165.1853
v 46.92568 51.3194 -161.548
v 51.08241 51.3194 -155.3504
v 56.50582 55.00838 -158.988
v 51.08241 51.3194 -155.3504
v 55.23914 51.3194 -149.1529
v 60.66255 55.00838 -152.7905
v 56.50582 55.00838 -158.988
v 45.89436 50.61789 -160.8563
v 40.47118 46.92891 -157.2187
v 44.62767 46.92891 -151.0212
v 50.05109 50.61789 -154.6587
v 44.62767 46.92891 -151.0212
v 48.7844 46.92891 -144.8237
v 54.20781 50.61789 -148.4612
v 50.05109 50.61789 -154.6587
v 39.43962 46.22717 -156.527
v 34.01643 42.53819 -152.8895
v 38.17293 42.53819 -146.6922
v 43.59634 46.22717 -150.3295
v 38.17293 42.53819 -146.6922
v 42.32988 42.53819 -140.4944
v 47.75307 46.22717 -144.1319
v 43.59634 46.22717 -150.3295
v 26.53036 37.44595 -147.8685
v 21.10695 33.75699 -144.2312
v 25.26367 33.75699 -138.0336
v 30.68709 37.44595 -141.6712
v 25.26367 33.75699 -138.0336
v 29.42041 33.75699 -131.8361
v 34.84381 37.44595 -135.4736
v 30.68709 37.44595 -141.6712
v 32.98488 41.83667 -152.1977
v 27.56169 38.14748 -148.5602
v 31.71819 38.14748 -142.3629
v 37.1416 41.83667 -146.0002
v 31.71819 38.14748 -142.3629
v 35.87514 38.14748 -136.1651
v 41.29832 41.83667 -139.8027
v 37.1416 41.83667 -146.0002
v 32.47569 42.87575 -151.8563
v 31.20901 39.18677 -142.0212
v 27.05251 39.18677 -148.2188
v 36.63243 42.87575 -145.6588
v 31.20901 39.18677 -142.0212
v 40.78915 42.87575 -139.4612
v 35.36597 39.18677 -135.8237
v 36.63243 42.87575 -145.6588
vt -1.5 2.5
vt 2.5 -1.5
vt 2.5 2.5
vt -1.5 -1.5
vt -1.5 2.5
vt 2.5 -1.5
vt 2.5 2.5
vt -1.5 -1.5
vt -1.5 2.5
vt 2.5 -1.5
vt 2.5 2.5
vt -1.5 -1.5
vt -1.5 2.5
vt 2.5 -1.5
vt 2.5 2.5
vt -1.5 -1.5
vt -1.5 2.5
vt 2.5 -1.5
vt 2.5 2.5
vt -1.5 -1.5
vt -1.5 2.5
vt 2.5 -1.5
vt 2.5 2.5
vt -1.5 -1.5
vt -1.5 2.5
vt 2.5 -1.5
vt 2.5 2.5
vt -1.5 -1.5
vt -1.5 2.5
vt 2.5 -1.5
vt 2.5 2.5
vt -1.5 -1.5
vt -1.5 2.5
vt 2.5 -1.5
vt 2.5 2.5
vt -1.5 -1.5
vt -1.5 2.5
vt 2.5 -1.5
vt 2.5 2.5
vt -1.5 -1.5
vt -1.5 2.5
vt 2.5 -1.5
vt 2.5 2.5
vt -1.5 -1.5
vt -1.5 2.5
vt 2.5 -1.5
vt 2.5 2.5
vt -1.5 -1.5
vt -1.5 2.5
vt 2.5 2.5
vt 2.5 -1.5
vt -1.5 -1.5
vt -1.5 2.5
vt 2.5 2.5
vt 2.5 -1.5
vt -1.5 -1.5
vt -1.5 2.5
vt 2.5 2.5
vt 2.5 -1.5
vt -1.5 -1.5
vt -1.5 2.5
vt 2.5 2.5
vt 2.5 -1.5
vt -1.5 -1.5
vt -1.5 2.5
vt 2.5 2.5
vt 2.5 -1.5
vt -1.5 -1.5
vt -1.5 2.5
vt 2.5 2.5
vt 2.5 -1.5
vt -1.5 -1.5
vt -1.5 2.5
vt 2.5 2.5
vt 2.5 -1.5
vt -1.5 -1.5
vt -1.5 2.5
vt 2.5 2.5
vt 2.5 -1.5
vt -1.5 -1.5
vt -1.5 2.5
vt 2.5 2.5
vt 2.5 -1.5
vt -1.5 -1.5
vt -1.5 2.5
vt 2.5 2.5
vt 2.5 -1.5
vt -1.5 -1.5
vt -1.5 2.5
vt 2.5 2.5
vt 2.5 -1.5
vt -1.5 -1.5
vt -1.5 2.5
vt 2.5 2.5
vt 2.5 -1.5
vt -1.5 -1.5
vt -1.5 2.5
vt 2.5 2.5
vt 2.5 -1.5
vt -1.5 -1.5
vt -1.5 2.5
vt 2.5 2.5
vt 2.5 -1.5
vt -1.5 -1.5
vt -1.5 2.5
vt 2.5 -1.5
vt 2.5 2.5
vt -1.5 -1.5
vt -1.5 2.5
vt 2.5 -1.5
vt 2.5 2.5
vt -1.5 -1.5
vn -0.4076763 0.8706738 0.2751857
vn -0.4076763 0.8706738 0.2751857
vn -0.4076763 0.8706738 0.2751857
vn -0.4076763 0.8706738 0.2751857
vn -0.4076763 0.8706738 0.2751857
vn -0.4076763 0.8706738 0.2751857
vn -0.4076763 0.8706738 0.2751857
vn -0.4076763 0.8706738 0.2751857
vn -0.4076763 0.8706738 0.2751857
vn -0.4076763 0.8706738 0.2751857
vn -0.4076763 0.8706738 0.2751857
vn -0.4076763 0.8706738 0.2751857
vn -0.4076763 0.8706738 0.2751857
vn -0.4076763 0.8706738 0.2751857
vn -0.4076763 0.8706738 0.2751857
vn -0.4076763 0.8706738 0.2751857
vn -0.4076763 0.8706738 0.2751857
vn -0.4076763 0.8706738 0.2751857
vn -0.4076763 0.8706738 0.2751857
vn -0.4076763 0.8706738 0.2751857
vn -0.4076763 0.8706738 0.2751857
vn -0.4076763 0.8706738 0.2751857
vn -0.4076763 0.8706738 0.2751857
vn -0.4076763 0.8706738 0.2751857
vn -0.4076763 0.8706738 0.2751857
vn -0.4076763 0.8706738 0.2751857
vn -0.4076763 0.8706738 0.2751857
vn -0.4076763 0.8706738 0.2751857
vn -0.4076763 0.8706738 0.2751857
vn -0.4076763 0.8706738 0.2751857
vn -0.4076763 0.8706738 0.2751857
vn -0.4076763 0.8706738 0.2751857
vn -0.4076763 0.8706738 0.2751857
vn -0.4076763 0.8706738 0.2751857
vn -0.4076763 0.8706738 0.2751857
vn -0.4076763 0.8706738 0.2751857
vn -0.4076763 0.8706738 0.2751857
vn -0.4076763 0.8706738 0.2751857
vn -0.4076763 0.8706738 0.2751857
vn -0.4076763 0.8706738 0.2751857
vn -0.4076763 0.8706738 0.2751857
vn -0.4076763 0.8706738 0.2751857
vn -0.4076763 0.8706738 0.2751857
vn -0.4076763 0.8706738 0.2751857
vn -0.4076763 0.8706738 0.2751857
vn -0.4076763 0.8706738 0.2751857
vn -0.4076763 0.8706738 0.2751857
vn -0.4076763 0.8706738 0.2751857
vn 0.4093781 -0.8706734 -0.2726491
vn 0.4093781 -0.8706734 -0.2726491
vn 0.4093781 -0.8706734 -0.2726491
vn 0.4093781 -0.8706734 -0.2726491
vn 0.4093781 -0.8706734 -0.2726491
vn 0.4093781 -0.8706734 -0.2726491
vn 0.4093781 -0.8706734 -0.2726491
vn 0.4093781 -0.8706734 -0.2726491
vn 0.4093781 -0.8706734 -0.2726491
vn 0.4093781 -0.8706734 -0.2726491
vn 0.4093781 -0.8706734 -0.2726491
vn 0.4093781 -0.8706734 -0.2726491
vn 0.4093781 -0.8706734 -0.2726491
vn 0.4093781 -0.8706734 -0.2726491
vn 0.4093781 -0.8706734 -0.2726491
vn 0.4093781 -0.8706734 -0.2726491
vn 0.4093781 -0.8706734 -0.2726491
vn 0.4093781 -0.8706734 -0.2726491
vn 0.4093781 -0.8706734 -0.2726491
vn 0.4093781 -0.8706734 -0.2726491
vn 0.4093781 -0.8706734 -0.2726491
vn 0.4093781 -0.8706734 -0.2726491
vn 0.4093781 -0.8706734 -0.2726491
vn 0.4093781 -0.8706734 -0.2726491
vn 0.4093781 -0.8706734 -0.2726491
vn 0.4093781 -0.8706734 -0.2726491
vn 0.4093781 -0.8706734 -0.2726491
vn 0.4093781 -0.8706734 -0.2726491
vn 0.4093781 -0.8706734 -0.2726491
vn 0.4093781 -0.8706734 -0.2726491
vn 0.4093781 -0.8706734 -0.2726491
vn 0.4093781 -0.8706734 -0.2726491
vn 0.4093781 -0.8706734 -0.2726491
vn 0.4093781 -0.8706734 -0.2726491
vn 0.4093781 -0.8706734 -0.2726491
vn 0.4093781 -0.8706734 -0.2726491
vn 0.4093781 -0.8706734 -0.2726491
vn 0.4093781 -0.8706734 -0.2726491
vn 0.4093781 -0.8706734 -0.2726491
vn 0.4093781 -0.8706734 -0.2726491
vn 0.4093781 -0.8706734 -0.2726491
vn 0.4093781 -0.8706734 -0.2726491
vn 0.4093781 -0.8706734 -0.2726491
vn 0.4093781 -0.8706734 -0.2726491
vn 0.4093781 -0.8706734 -0.2726491
vn 0.4093781 -0.8706734 -0.2726491
vn 0.4093781 -0.8706734 -0.2726491
vn 0.4093781 -0.8706734 -0.2726491
vn 0.4093781 -0.8706734 -0.2726491
vn 0.4093781 -0.8706734 -0.2726491
vn 0.4093781 -0.8706734 -0.2726491
vn 0.4093781 -0.8706734 -0.2726491
vn 0.4093781 -0.8706734 -0.2726491
vn 0.4093781 -0.8706734 -0.2726491
vn 0.4093781 -0.8706734 -0.2726491
vn 0.4093781 -0.8706734 -0.2726491
vn -0.4076763 0.8706738 0.2751857
vn -0.4076763 0.8706738 0.2751857
vn -0.4076763 0.8706738 0.2751857
vn -0.4076763 0.8706738 0.2751857
vn -0.4076763 0.8706738 0.2751857
vn -0.4076763 0.8706738 0.2751857
vn -0.4076763 0.8706738 0.2751857
vn -0.4076763 0.8706738 0.2751857
g Combined_M_Cmn_ami01_Prefab_Mesh_0
f 3/3/3 2/2/2 1/1/1
f 4/4/4 1/1/1 2/2/2
f 7/7/7 6/6/6 5/5/5
f 8/8/8 5/5/5 6/6/6
f 11/11/11 10/10/10 9/9/9
f 12/12/12 9/9/9 10/10/10
f 15/15/15 14/14/14 13/13/13
f 16/16/16 13/13/13 14/14/14
f 19/19/19 18/18/18 17/17/17
f 20/20/20 17/17/17 18/18/18
f 23/23/23 22/22/22 21/21/21
f 24/24/24 21/21/21 22/22/22
f 27/27/27 26/26/26 25/25/25
f 28/28/28 25/25/25 26/26/26
f 31/31/31 30/30/30 29/29/29
f 32/32/32 29/29/29 30/30/30
f 35/35/35 34/34/34 33/33/33
f 36/36/36 33/33/33 34/34/34
f 39/39/39 38/38/38 37/37/37
f 40/40/40 37/37/37 38/38/38
f 43/43/43 42/42/42 41/41/41
f 44/44/44 41/41/41 42/42/42
f 47/47/47 46/46/46 45/45/45
f 48/48/48 45/45/45 46/46/46
f 51/51/51 50/50/50 49/49/49
f 49/49/49 52/52/52 51/51/51
f 55/55/55 54/54/54 53/53/53
f 53/53/53 56/56/56 55/55/55
f 59/59/59 58/58/58 57/57/57
f 57/57/57 60/60/60 59/59/59
f 63/63/63 62/62/62 61/61/61
f 61/61/61 64/64/64 63/63/63
f 67/67/67 66/66/66 65/65/65
f 65/65/65 68/68/68 67/67/67
f 71/71/71 70/70/70 69/69/69
f 69/69/69 72/72/72 71/71/71
f 75/75/75 74/74/74 73/73/73
f 73/73/73 76/76/76 75/75/75
f 79/79/79 78/78/78 77/77/77
f 77/77/77 80/80/80 79/79/79
f 83/83/83 82/82/82 81/81/81
f 81/81/81 84/84/84 83/83/83
f 87/87/87 86/86/86 85/85/85
f 85/85/85 88/88/88 87/87/87
f 91/91/91 90/90/90 89/89/89
f 89/89/89 92/92/92 91/91/91
f 95/95/95 94/94/94 93/93/93
f 93/93/93 96/96/96 95/95/95
f 99/99/99 98/98/98 97/97/97
f 97/97/97 100/100/100 99/99/99
f 103/103/103 102/102/102 101/101/101
f 101/101/101 104/104/104 103/103/103
f 107/107/107 106/106/106 105/105/105
f 108/108/108 105/105/105 106/106/106
f 111/111/111 110/110/110 109/109/109
f 112/112/112 109/109/109 110/110/110
