g PillarIce
v 1.721289 0.9437621 -1.007202
v -0.3263428 1.728772 -1.752807
v 0.03020019 0 -3.017554
v -2.265918 0 2.168628
v -0.2106445 1.891138 1.828979
v 0.7507812 0 3.017554
v -0.2458496 5.812243 0.4308838
v -0.5371826 6.207299 -0.03674316
v -0.183374 7.261169 0.1206055
v -0.2643555 7.070642 -0.5513915
v -0.183374 7.261169 0.1206055
v -0.5371826 6.207299 -0.03674316
v -0.8096191 4.961108 -0.542456
v -0.5371826 6.207299 -0.03674316
v -0.2458496 5.812243 0.4308838
v -0.2106445 1.891138 1.828979
v 0.9623047 2.09917 1.10752
v 0.7507812 0 3.017554
v 0.9623047 2.09917 1.10752
v -0.04838867 4.463244 0.8058105
v 1.149707 3.250586 0.3509033
v 1.070386 4.925427 0.2498291
v 1.149707 3.250586 0.3509033
v 0.405542 5.078076 0.7093505
v 1.149707 3.250586 0.3509033
v -0.04838867 4.463244 0.8058105
v 0.405542 5.078076 0.7093505
v -0.1904297 7.992175 -0.4556396
v -0.183374 7.261169 0.1206055
v -0.2643555 7.070642 -0.5513915
v -1.371997 3.305505 0.5258057
v -2.265918 0 2.168628
v -1.668823 1.362854 -0.8659424
v -1.21582 3.211719 -0.9627929
v -1.302759 4.549682 0.3616943
v -1.371997 3.305505 0.5258057
v -1.21582 3.211719 -0.9627929
v -1.668823 1.362854 -0.8659424
v -0.3263428 1.728772 -1.752807
v -1.21582 3.211719 -0.9627929
v -0.3263428 1.728772 -1.752807
v 0.4171875 3.207251 -1.448071
v -1.21582 3.211719 -0.9627929
v -1.21582 3.211719 -0.9627929
v 0.4171875 3.207251 -1.448071
v -0.3493164 4.159265 -1.24729
v 0.4826172 6.06355 -0.8239013
v 0.04682617 6.019494 -0.9002685
v 1.000806 4.867077 -0.7640136
v 0.04682617 6.019494 -0.9002685
v -0.3493164 4.159265 -1.24729
v 1.000806 4.867077 -0.7640136
v 1.149707 3.250586 0.3509033
v 1.580957 2.426025 -0.2503662
v 0.9623047 2.09917 1.10752
v 0.4762939 5.984521 0.3533203
v 0.6164062 6.915478 0.004418945
v 1.000806 4.867077 -0.7640136
v 1.580957 2.426025 -0.2503662
v 1.149707 3.250586 0.3509033
v 0.4171875 3.207251 -1.448071
v 1.149707 3.250586 0.3509033
v 1.070386 4.925427 0.2498291
v 0.4171875 3.207251 -1.448071
v 0.4171875 3.207251 -1.448071
v 1.070386 4.925427 0.2498291
v 1.000806 4.867077 -0.7640136
v 0.4171875 3.207251 -1.448071
v -0.3263428 1.728772 -1.752807
v 1.580957 2.426025 -0.2503662
v 1.721289 0.9437621 -1.007202
v 1.580957 2.426025 -0.2503662
v -0.3263428 1.728772 -1.752807
v 0.17146 8.104846 0.109082
v 0.6164062 6.915478 0.004418945
v -0.183374 7.261169 0.1206055
v 0.5115722 8.19171 -0.3097412
v 0.3554199 7.481262 -0.6650146
v 0.6164062 6.915478 0.004418945
v 0.3554199 7.481262 -0.6650146
v 0.6287109 6.891272 -0.6146728
v 0.6164062 6.915478 0.004418945
v 0.17146 8.104846 0.109082
v -0.183374 7.261169 0.1206055
v -0.1904297 7.992175 -0.4556396
v -1.302759 4.549682 0.3616943
v -0.2458496 5.812243 0.4308838
v -0.04838867 4.463244 0.8058105
v -0.04838867 4.463244 0.8058105
v -0.2458496 5.812243 0.4308838
v 0.405542 5.078076 0.7093505
v 0.405542 5.078076 0.7093505
v -0.2458496 5.812243 0.4308838
v 0.163916 5.690173 0.7067138
v 1.000806 4.867077 -0.7640136
v 0.6164062 6.915478 0.004418945
v 0.4826172 6.06355 -0.8239013
v 0.4826172 6.06355 -0.8239013
v 0.6164062 6.915478 0.004418945
v 0.6287109 6.891272 -0.6146728
v 0.3554199 7.481262 -0.6650146
v -0.1904297 7.992175 -0.4556396
v -0.2643555 7.070642 -0.5513915
v 0.4826172 6.06355 -0.8239013
v 0.6287109 6.891272 -0.6146728
v 0.04682617 6.019494 -0.9002685
v 0.04682617 6.019494 -0.9002685
v 0.6287109 6.891272 -0.6146728
v -0.2643555 7.070642 -0.5513915
v 0.6287109 6.891272 -0.6146728
v 0.3554199 7.481262 -0.6650146
v -0.2643555 7.070642 -0.5513915
v 0.6164062 6.915478 0.004418945
v 0.17146 8.104846 0.109082
v 0.5115722 8.19171 -0.3097412
v 0.5115722 8.19171 -0.3097412
v 0.17146 8.104846 0.109082
v -0.1904297 7.992175 -0.4556396
v -0.183374 7.261169 0.1206055
v 0.6164062 6.915478 0.004418945
v -0.2458496 5.812243 0.4308838
v 0.6164062 6.915478 0.004418945
v 0.4762939 5.984521 0.3533203
v -0.2458496 5.812243 0.4308838
v -0.2458496 5.812243 0.4308838
v 0.4762939 5.984521 0.3533203
v 0.163916 5.690173 0.7067138
v 1.070386 4.925427 0.2498291
v 0.405542 5.078076 0.7093505
v 0.4762939 5.984521 0.3533203
v 0.163916 5.690173 0.7067138
v 0.7507812 0 3.017554
v 0.9623047 2.09917 1.10752
v 3.396826 0 0.6633056
v 0.9623047 2.09917 1.10752
v 1.580957 2.426025 -0.2503662
v 1.721289 0.9437621 -1.007202
v -1.302759 4.549682 0.3616943
v -0.04838867 4.463244 0.8058105
v -1.371997 3.305505 0.5258057
v -0.04838867 4.463244 0.8058105
v 0.9623047 2.09917 1.10752
v -1.371997 3.305505 0.5258057
v 0.9623047 2.09917 1.10752
v -0.2106445 1.891138 1.828979
v -1.371997 3.305505 0.5258057
v -1.371997 3.305505 0.5258057
v -0.2106445 1.891138 1.828979
v -2.265918 0 2.168628
v -0.8096191 4.961108 -0.542456
v -1.21582 3.211719 -0.9627929
v -0.3493164 4.159265 -1.24729
v -0.3493164 4.159265 -1.24729
v 0.04682617 6.019494 -0.9002685
v -0.8096191 4.961108 -0.542456
v -0.8096191 4.961108 -0.542456
v 0.04682617 6.019494 -0.9002685
v -0.5371826 6.207299 -0.03674316
v -0.5371826 6.207299 -0.03674316
v 0.04682617 6.019494 -0.9002685
v -0.2643555 7.070642 -0.5513915
v -0.2458496 5.812243 0.4308838
v -1.302759 4.549682 0.3616943
v -0.8096191 4.961108 -0.542456
v -1.21582 3.211719 -0.9627929
v -0.8096191 4.961108 -0.542456
v -1.302759 4.549682 0.3616943
v 0.4762939 5.984521 0.3533203
v 1.000806 4.867077 -0.7640136
v 1.070386 4.925427 0.2498291
v -0.3493164 4.159265 -1.24729
v 0.4171875 3.207251 -1.448071
v 1.000806 4.867077 -0.7640136
v -0.1904297 7.992175 -0.4556396
v 0.3554199 7.481262 -0.6650146
v 0.5115722 8.19171 -0.3097412
v -1.668823 1.362854 -0.8659424
v -2.265918 0 2.168628
v -3.396826 0 -0.001831055
v -1.668823 1.362854 -0.8659424
v -3.396826 0 -0.001831055
v -2.338037 0 -1.686084
v 0.03020019 0 -3.017554
v -0.3263428 1.728772 -1.752807
v -1.668823 1.362854 -0.8659424
v 1.776831 0 -2.422436
v 1.721289 0.9437621 -1.007202
v 0.03020019 0 -3.017554
v 3.396826 0 0.6633056
v 1.721289 0.9437621 -1.007202
v 1.776831 0 -2.422436
v 3.396826 0 0.6633056
v 0.9623047 2.09917 1.10752
v 1.721289 0.9437621 -1.007202
v 0.03020019 0 -3.017554
v -1.668823 1.362854 -0.8659424
v -2.338037 0 -1.686084
vt 0.8089353 0.412062
vt 0.8519338 0.5775355
vt 0.9902466 0.5214877
vt 0.3503649 0.2198645
vt 0.5023468 0.3593776
vt 0.5551013 0.1933562
vt 0.4714069 0.6910793
vt 0.4363121 0.7295468
vt 0.4700862 0.8061824
vt 0.419623 0.8045816
vt 0.4700862 0.8061824
vt 0.4363121 0.7295468
vt 0.3735884 0.6535745
vt 0.4363121 0.7295468
vt 0.4714069 0.6910793
vt 0.5023468 0.3593776
vt 0.6035792 0.403887
vt 0.5551013 0.1933562
vt 0.6035792 0.403887
vt 0.5050386 0.5820099
vt 0.6229979 0.515946
vt 0.5798849 0.6364824
vt 0.6229979 0.515946
vt 0.5247244 0.6344745
vt 0.6229979 0.515946
vt 0.5050386 0.5820099
vt 0.5247244 0.6344745
vt 0.4366114 0.8673467
vt 0.4700862 0.8061824
vt 0.419623 0.8045816
vt 0.3991013 0.4948455
vt 0.3503649 0.2198645
vt 0.2191123 0.4266235
vt 0.2947263 0.5461553
vt 0.4148999 0.5862876
vt 0.3991013 0.4948455
vt 0.2947263 0.5461553
vt 0.2191123 0.4266235
vt 0.1611334 0.5366265
vt 0.2947263 0.5461553
vt 0.1611334 0.5366265
vt 0.2085783 0.6404569
vt 0.2947263 0.5461553
vt 0.2947263 0.5461553
vt 0.2085783 0.6404569
vt 0.293134 0.642783
vt 0.6166138 0.7628877
vt 0.6457368 0.7796947
vt 0.6401829 0.673631
vt 0.6457368 0.7796947
vt 0.7532872 0.6889506
vt 0.6401829 0.673631
vt 0.6229979 0.515946
vt 0.6976473 0.4754146
vt 0.6035792 0.403887
vt 0.5281258 0.7127377
vt 0.5320789 0.788835
vt 0.6401829 0.673631
vt 0.6976473 0.4754146
vt 0.6229979 0.515946
vt 0.7422383 0.599901
vt 0.6229979 0.515946
vt 0.5798849 0.6364824
vt 0.7422383 0.599901
vt 0.7422383 0.599901
vt 0.5798849 0.6364824
vt 0.6401829 0.673631
vt 0.7422383 0.599901
vt 0.8519338 0.5775355
vt 0.6976473 0.4754146
vt 0.8089353 0.412062
vt 0.6976473 0.4754146
vt 0.8519338 0.5775355
vt 0.484367 0.8723673
vt 0.5320789 0.788835
vt 0.4700862 0.8061824
vt 0.5198863 0.8892388
vt 0.563899 0.8517058
vt 0.5320789 0.788835
vt 0.563899 0.8517058
vt 0.5746146 0.807206
vt 0.5320789 0.788835
vt 0.484367 0.8723673
vt 0.4700862 0.8061824
vt 0.4366114 0.8673467
vt 0.4148999 0.5862876
vt 0.4714069 0.6910793
vt 0.5050386 0.5820099
vt 0.5050386 0.5820099
vt 0.4714069 0.6910793
vt 0.5247244 0.6344745
vt 0.5247244 0.6344745
vt 0.4714069 0.6910793
vt 0.5054448 0.6795669
vt 0.6401829 0.673631
vt 0.5320789 0.788835
vt 0.6166138 0.7628877
vt 0.6166138 0.7628877
vt 0.5320789 0.788835
vt 0.5746146 0.807206
vt 0.563899 0.8517058
vt 0.5716938 0.9081119
vt 0.6188758 0.8578016
vt 0.6166138 0.7628877
vt 0.5746146 0.807206
vt 0.6457368 0.7796947
vt 0.6457368 0.7796947
vt 0.5746146 0.807206
vt 0.6188758 0.8578016
vt 0.5746146 0.807206
vt 0.563899 0.8517058
vt 0.6188758 0.8578016
vt 0.5320789 0.788835
vt 0.484367 0.8723673
vt 0.5198863 0.8892388
vt 0.5198863 0.8892388
vt 0.484367 0.8723673
vt 0.4761106 0.9219139
vt 0.4700862 0.8061824
vt 0.5320789 0.788835
vt 0.4714069 0.6910793
vt 0.5320789 0.788835
vt 0.5281258 0.7127377
vt 0.4714069 0.6910793
vt 0.4714069 0.6910793
vt 0.5281258 0.7127377
vt 0.5054448 0.6795669
vt 0.5798849 0.6364824
vt 0.5247244 0.6344745
vt 0.5281258 0.7127377
vt 0.5054448 0.6795669
vt 0.5551013 0.1933562
vt 0.6035792 0.403887
vt 0.7820718 0.2389872
vt 0.6035792 0.403887
vt 0.6976473 0.4754146
vt 0.8089353 0.412062
vt 0.4148999 0.5862876
vt 0.5050386 0.5820099
vt 0.3991013 0.4948455
vt 0.5050386 0.5820099
vt 0.6035792 0.403887
vt 0.3991013 0.4948455
vt 0.6035792 0.403887
vt 0.5023468 0.3593776
vt 0.3991013 0.4948455
vt 0.3991013 0.4948455
vt 0.5023468 0.3593776
vt 0.3503649 0.2198645
vt 0.3735884 0.6535745
vt 0.2947263 0.5461553
vt 0.293134 0.642783
vt 0.293134 0.642783
vt 0.3621021 0.7532285
vt 0.3735884 0.6535745
vt 0.3735884 0.6535745
vt 0.3621021 0.7532285
vt 0.4363121 0.7295468
vt 0.4363121 0.7295468
vt 0.3621021 0.7532285
vt 0.419623 0.8045816
vt 0.4714069 0.6910793
vt 0.4148999 0.5862876
vt 0.3735884 0.6535745
vt 0.2947263 0.5461553
vt 0.3735884 0.6535745
vt 0.4148999 0.5862876
vt 0.5281258 0.7127377
vt 0.6401829 0.673631
vt 0.5798849 0.6364824
vt 0.7532872 0.6889506
vt 0.7422383 0.599901
vt 0.6401829 0.673631
vt 0.5716938 0.9081119
vt 0.563899 0.8517058
vt 0.5198863 0.8892388
vt 0.2191123 0.4266235
vt 0.3503649 0.2198645
vt 0.1849153 0.2516241
vt 0.2191123 0.4266235
vt 0.1849153 0.2516241
vt 0.1061653 0.3584634
vt 0.005298018 0.5207558
vt 0.1611334 0.5366265
vt 0.2191123 0.4266235
vt 0.934426 0.4037613
vt 0.8089353 0.412062
vt 0.9902466 0.5214877
vt 0.7820718 0.2389872
vt 0.8089353 0.412062
vt 0.934426 0.4037613
vt 0.7820718 0.2389872
vt 0.6035792 0.403887
vt 0.8089353 0.412062
vt 0.005298018 0.5207558
vt 0.2191123 0.4266235
vt 0.1061653 0.3584634
vn 0.4658851 0.5830302 -0.6656025
vn 0.4658851 0.5830302 -0.6656025
vn 0.4658851 0.5830302 -0.6656026
vn -0.2454154 0.423344 0.8720958
vn -0.2454154 0.4233441 0.8720958
vn -0.2454154 0.423344 0.8720958
vn -0.7681865 0.1655602 0.6184493
vn -0.7681865 0.1655602 0.6184493
vn -0.7681865 0.1655601 0.6184492
vn -0.9488272 0.3147975 0.0250894
vn -0.9488272 0.3147975 0.0250894
vn -0.9488272 0.3147975 0.0250894
vn -0.8567272 -0.02182195 0.515308
vn -0.8567272 -0.02182195 0.515308
vn -0.8567272 -0.02182195 0.515308
vn 0.3300739 0.6168706 0.7145081
vn 0.3300739 0.6168708 0.7145081
vn 0.3300739 0.6168708 0.7145081
vn 0.6240941 0.3556056 0.6957379
vn 0.6240941 0.3556056 0.695738
vn 0.624094 0.3556056 0.6957379
vn 0.5787287 0.07640782 0.8119328
vn 0.5787289 0.07640782 0.8119327
vn 0.5787287 0.07640782 0.8119328
vn 0.2938489 -0.06735948 0.9534755
vn 0.2938489 -0.06735948 0.9534755
vn 0.2938489 -0.06735948 0.9534755
vn -0.9925773 0.06923612 0.0999841
vn -0.9925773 0.06923612 0.09998411
vn -0.9925773 0.06923611 0.09998409
vn -0.9718387 0.2159917 -0.09421913
vn -0.9718387 0.2159917 -0.09421914
vn -0.9718387 0.2159917 -0.09421914
vn -0.9661123 0.2306429 -0.1158912
vn -0.9934245 0.04119384 -0.1068208
vn -0.9934245 0.04119384 -0.1068208
vn -0.9934245 0.04119384 -0.1068208
vn -0.5667388 0.09599559 -0.818286
vn -0.5667389 0.0959956 -0.818286
vn -0.5667388 0.09599559 -0.818286
vn -0.2688471 0.3222865 -0.9076633
vn -0.2688471 0.3222865 -0.9076632
vn -0.268847 0.3222866 -0.9076633
vn -0.2848195 -0.02723473 -0.9581942
vn -0.2848195 -0.02723473 -0.9581942
vn -0.2848195 -0.02723473 -0.9581942
vn 0.1701638 0.02438899 -0.985114
vn 0.1701638 0.02438899 -0.985114
vn 0.1701638 0.02438899 -0.985114
vn 0.2790672 0.1183426 -0.9529515
vn 0.2790672 0.1183426 -0.9529515
vn 0.2790672 0.1183426 -0.9529515
vn 0.8869955 0.1439555 0.4387663
vn 0.8869955 0.1439555 0.4387662
vn 0.8869955 0.1439555 0.4387662
vn 0.9114731 0.01685873 0.411014
vn 0.9114731 0.01685873 0.4110139
vn 0.9114731 0.01685873 0.4110139
vn 0.7294971 0.6088286 -0.3117077
vn 0.7294971 0.6088287 -0.3117077
vn 0.7294971 0.6088286 -0.3117077
vn 0.9257807 0.02106542 -0.3774735
vn 0.9257807 0.02106542 -0.3774735
vn 0.9257807 0.02106542 -0.3774735
vn 0.9482441 -0.3140443 -0.04700376
vn 0.9482441 -0.3140443 -0.04700375
vn 0.9482441 -0.3140443 -0.04700376
vn 0.6476981 -0.172782 -0.7420468
vn 0.6476982 -0.172782 -0.7420468
vn 0.6476982 -0.172782 -0.7420468
vn 0.4512678 0.43933 -0.7767539
vn 0.4512678 0.43933 -0.7767538
vn 0.4512678 0.43933 -0.7767538
vn 0.1267875 -0.03978687 0.9911316
vn 0.1267874 -0.03978687 0.9911316
vn 0.1267875 -0.03978687 0.9911316
vn 0.9268724 -0.0161812 -0.3750275
vn 0.9268724 -0.0161812 -0.3750275
vn 0.9268724 -0.0161812 -0.3750275
vn 0.9073275 0.4204217 0.001594983
vn 0.9073275 0.4204217 0.001594983
vn 0.9073275 0.4204217 0.001594983
vn -0.8187382 0.3505562 0.4547287
vn -0.8187382 0.3505562 0.4547285
vn -0.8187382 0.3505562 0.4547285
vn -0.3132246 0.2114686 0.9258354
vn -0.3132246 0.2114686 0.9258354
vn -0.3132246 0.2114686 0.9258354
vn -0.131337 0.2475677 0.9599276
vn -0.131337 0.2475677 0.9599276
vn -0.131337 0.2475677 0.9599276
vn -0.5896294 -0.2294209 0.7744051
vn -0.5896294 -0.2294209 0.7744051
vn -0.5896294 -0.2294209 0.7744051
vn 0.8174263 0.3304068 -0.4718533
vn 0.8174263 0.3304069 -0.4718534
vn 0.8174263 0.3304068 -0.4718533
vn 0.9832582 -0.1802675 0.02659088
vn 0.9832582 -0.1802675 0.02659087
vn 0.9832582 -0.1802675 0.02659088
vn -0.255489 0.1201731 -0.9593142
vn -0.255489 0.1201731 -0.9593142
vn -0.255489 0.1201731 -0.9593142
vn 0.1470426 0.2179316 -0.9648234
vn 0.1470426 0.2179316 -0.9648234
vn 0.1470427 0.2179316 -0.9648234
vn -0.004236685 0.3138714 -0.949456
vn -0.004236685 0.3138714 -0.949456
vn -0.004236686 0.3138714 -0.949456
vn -0.09576726 -0.1285832 -0.9870638
vn -0.09576727 -0.1285832 -0.9870638
vn -0.09576726 -0.1285832 -0.9870638
vn 0.7348755 0.218418 0.6420682
vn 0.7348755 0.218418 0.6420683
vn 0.7348754 0.218418 0.6420683
vn -0.2696463 0.9627662 -0.01928904
vn -0.2696464 0.9627662 -0.01928904
vn -0.2696463 0.9627662 -0.01928904
vn 0.2230054 0.1949196 0.9551309
vn 0.2230054 0.1949196 0.9551309
vn 0.2230054 0.1949196 0.9551309
vn 0.01749511 0.3485768 0.9371169
vn 0.01749511 0.3485769 0.9371169
vn 0.01749511 0.3485769 0.9371169
vn -0.1345347 0.8166286 0.5612648
vn -0.1345347 0.8166286 0.5612648
vn -0.1345347 0.8166286 0.5612648
vn 0.5887198 0.2552933 0.7669643
vn 0.5887198 0.2552933 0.7669643
vn 0.5887198 0.2552933 0.7669643
vn 0.6153027 0.2461173 0.7488851
vn 0.566759 0.5225018 0.6370057
vn 0.566759 0.5225018 0.6370057
vn 0.5667589 0.5225018 0.6370057
vn 0.9141697 -0.1123089 0.3894617
vn 0.9141697 -0.1123089 0.3894617
vn 0.9141697 -0.1123089 0.3894617
vn -0.3217285 0.1413942 0.936215
vn -0.3217285 0.1413942 0.936215
vn -0.3217285 0.1413942 0.936215
vn -0.228889 0.02633387 0.9730963
vn -0.228889 0.02633387 0.9730963
vn -0.228889 0.02633387 0.9730963
vn 0.2396801 0.7569459 0.6079361
vn 0.23968 0.7569459 0.6079361
vn 0.23968 0.7569458 0.6079361
vn -0.3160063 0.4894092 0.8127845
vn -0.3160063 0.4894092 0.8127846
vn -0.3160063 0.4894093 0.8127845
vn -0.5892531 0.3155364 -0.743786
vn -0.5892531 0.3155363 -0.743786
vn -0.5892531 0.3155364 -0.743786
vn -0.63599 0.2702765 -0.722819
vn -0.63599 0.2702766 -0.722819
vn -0.6359901 0.2702765 -0.722819
vn -0.7211673 0.3900036 -0.5725513
vn -0.7211674 0.3900035 -0.5725512
vn -0.7211674 0.3900035 -0.5725512
vn -0.8330638 -0.06426346 -0.5494314
vn -0.8330638 -0.06426346 -0.5494314
vn -0.8330638 -0.06426346 -0.5494313
vn -0.75781 0.6410395 -0.1216238
vn -0.75781 0.6410395 -0.1216238
vn -0.75781 0.6410396 -0.1216238
vn -0.8893312 0.2912074 -0.3525454
vn -0.8893312 0.2912074 -0.3525454
vn -0.8893312 0.2912075 -0.3525454
vn 0.8651023 0.4938522 -0.08779468
vn 0.8651023 0.4938522 -0.0877947
vn 0.8651023 0.4938522 -0.0877947
vn 0.1619733 0.3267847 -0.9311156
vn 0.1619733 0.3267848 -0.9311156
vn 0.1619733 0.3267848 -0.9311156
vn 0.06293001 0.4352772 -0.8980944
vn 0.06293001 0.4352772 -0.8980944
vn 0.06293001 0.4352772 -0.8980944
vn -0.5112405 0.8171138 0.2663797
vn -0.5112405 0.8171139 0.2663796
vn -0.5112406 0.8171138 0.2663797
vn -0.6818444 0.5927567 -0.4286348
vn -0.6818444 0.5927567 -0.4286348
vn -0.6818444 0.5927567 -0.4286348
vn -0.5785593 0.4005 -0.7105412
vn -0.5785593 0.4005 -0.7105413
vn -0.5785594 0.4005 -0.7105412
vn 0.1840984 0.8210757 -0.540317
vn 0.1840984 0.8210757 -0.5403169
vn 0.1840984 0.8210757 -0.5403169
vn 0.708609 0.5995647 -0.3720153
vn 0.708609 0.5995647 -0.3720153
vn 0.708609 0.5995647 -0.3720153
vn 0.6203708 0.7602612 -0.192725
vn 0.6203708 0.7602612 -0.192725
vn 0.6203708 0.7602612 -0.192725
vn -0.3892011 0.6077015 -0.6922581
vn -0.3892012 0.6077015 -0.6922582
vn -0.3892012 0.6077015 -0.6922581
g PillarIce_0
f 3/3/3 2/2/2 1/1/1
f 6/6/6 5/5/5 4/4/4
f 9/9/9 8/8/8 7/7/7
f 12/12/12 11/11/11 10/10/10
f 15/15/15 14/14/14 13/13/13
f 18/18/18 17/17/17 16/16/16
f 21/21/21 20/20/20 19/19/19
f 24/24/24 23/23/23 22/22/22
f 27/27/27 26/26/26 25/25/25
f 30/30/30 29/29/29 28/28/28
f 33/33/33 32/32/32 31/31/31
f 31/31/31 34/34/34 33/33/33
f 37/37/37 36/36/36 35/35/35
f 40/40/40 39/39/39 38/38/38
f 43/43/43 42/42/42 41/41/41
f 46/46/46 45/45/45 44/44/44
f 49/49/49 48/48/48 47/47/47
f 52/52/52 51/51/51 50/50/50
f 55/55/55 54/54/54 53/53/53
f 58/58/58 57/57/57 56/56/56
f 61/61/61 60/60/60 59/59/59
f 64/64/64 63/63/63 62/62/62
f 67/67/67 66/66/66 65/65/65
f 70/70/70 69/69/69 68/68/68
f 73/73/73 72/72/72 71/71/71
f 76/76/76 75/75/75 74/74/74
f 79/79/79 78/78/78 77/77/77
f 82/82/82 81/81/81 80/80/80
f 85/85/85 84/84/84 83/83/83
f 88/88/88 87/87/87 86/86/86
f 91/91/91 90/90/90 89/89/89
f 94/94/94 93/93/93 92/92/92
f 97/97/97 96/96/96 95/95/95
f 100/100/100 99/99/99 98/98/98
f 103/103/103 102/102/102 101/101/101
f 106/106/106 105/105/105 104/104/104
f 109/109/109 108/108/108 107/107/107
f 112/112/112 111/111/111 110/110/110
f 115/115/115 114/114/114 113/113/113
f 118/118/118 117/117/117 116/116/116
f 121/121/121 120/120/120 119/119/119
f 124/124/124 123/123/123 122/122/122
f 127/127/127 126/126/126 125/125/125
f 130/130/130 129/129/129 128/128/128
f 130/130/130 131/131/131 129/129/129
f 134/134/134 133/133/133 132/132/132
f 137/137/137 136/136/136 135/135/135
f 140/140/140 139/139/139 138/138/138
f 143/143/143 142/142/142 141/141/141
f 146/146/146 145/145/145 144/144/144
f 149/149/149 148/148/148 147/147/147
f 152/152/152 151/151/151 150/150/150
f 155/155/155 154/154/154 153/153/153
f 158/158/158 157/157/157 156/156/156
f 161/161/161 160/160/160 159/159/159
f 164/164/164 163/163/163 162/162/162
f 167/167/167 166/166/166 165/165/165
f 170/170/170 169/169/169 168/168/168
f 173/173/173 172/172/172 171/171/171
f 176/176/176 175/175/175 174/174/174
f 179/179/179 178/178/178 177/177/177
f 182/182/182 181/181/181 180/180/180
f 185/185/185 184/184/184 183/183/183
f 188/188/188 187/187/187 186/186/186
f 191/191/191 190/190/190 189/189/189
f 194/194/194 193/193/193 192/192/192
f 197/197/197 196/196/196 195/195/195
