g ShadowCollision
v 3.472263 0.2205801 -3.822466
v 2.974759 0.1142344 -4.159447
v 3.978208 0.1142344 -4.187545
v 4.573535 0.1142116 -3.629351
v 4.790527 6.198883E-06 -3.74683
v 4.739305 0.1142344 -2.771023
v 4.977413 1.764297E-05 -2.788432
v 4.721189 0.1142344 -1.596238
v 1.49814 0.9867992 -0.981688
v 4.999944 0.1751304 -0.9833531
v 5.577828 0.1142116 -1.067328
v 5.182552 0.1142344 -0.2984848
v 4.960814 1.764297E-05 -1.724612
v 4.067658 1.764297E-05 -4.428049
v 3.020448 1.764297E-05 -4.397749
v 2.172798 1.764297E-05 -4.785986
v 2.006093 0.1142344 -4.602146
v 0.7944479 0.5882258 -1.90706
v 1.453078 0.1142116 -5.555685
v 1.606653 6.198883E-06 -5.76436
v 0.6772194 6.198883E-06 -5.981079
v 0.6412158 0.1142116 -5.729828
v -0.2563782 0.1142116 -5.566089
v -0.601368 0.4631944 -2.241406
v -1.086061 0.1142116 -5.62524
v -1.909913 0.1142344 -4.808004
v -0.2318282 1.764297E-05 -5.802224
v -1.179994 6.198883E-06 -5.869896
v -1.990339 1.764297E-05 -5.067091
v -2.959256 1.764297E-05 -5.265773
v -2.806571 0.1142116 -4.991137
v -3.375135 0.1142344 -4.463505
v -1.746926 0.997694 -1.471171
v -3.589811 1.764297E-05 -4.585251
v -3.931653 1.764297E-05 -3.619654
v -3.715561 0.1142344 -3.497041
v -4.415615 0.1142344 -2.743975
v -4.562242 1.764297E-05 -2.939155
v -5.481522 1.764297E-05 -2.543605
v -5.291818 0.1142344 -2.364499
v -4.945255 0.1723356 -2.286936
v -5.851769 6.198883E-06 -1.660088
v -5.598626 0.1142116 -1.634032
v -2.383574 0.9938035 -0.2588649
v -5.450686 0.1142344 -0.6719489
v -5.206327 0.1142344 0.287066
v -5.714645 1.764297E-05 -0.7075419
v -5.469316 1.764297E-05 0.2596636
v -5.947756 1.764297E-05 1.128487
v -5.685544 0.1142344 1.155786
v -5.145362 0.2241392 0.9671888
v -5.701092 1.764297E-05 2.065187
v -5.463943 0.1142116 1.991799
v -2.211621 0.554595 0.9845748
v -5.086166 0.1142116 2.707595
v -5.267885 1.764297E-05 2.885446
v -4.343322 1.764297E-05 3.398419
v -4.116143 0.1142344 3.243658
v -4.215244 1.764297E-05 4.409329
v -3.985647 0.1142344 4.284503
v -3.854876 0.15066 4.014429
v -3.480443 1.764297E-05 5.041721
v -3.325054 0.1142116 4.845435
v -1.027286 0.5460048 1.942574
v -2.593606 0.1142116 5.185576
v -2.635086 1.764297E-05 5.43467
v -1.546716 1.764297E-05 5.301299
v -1.459867 0.1142344 5.045462
v -0.7340088 0.2313948 5.022851
v -0.7997875 0.1142344 5.654445
v -0.07832193 0.1142344 5.005055
v -0.8338175 1.764297E-05 5.98108
v -0.0280242 1.764297E-05 5.280513
v 0.2323751 0.5476589 2.089064
v 0.9479885 0.1142344 5.354562
v 1.968801 0.1142116 5.588188
v 1.008919 1.764297E-05 5.632621
v 2.015824 6.198883E-06 5.847754
v 2.851655 6.198883E-06 5.284107
v 2.734415 0.1142116 5.072488
v 3.437035 0.1142116 4.599146
v 1.2904 0.9576631 1.380273
v 3.657129 6.198883E-06 4.74307
v 3.796239 1.764297E-05 3.611156
v 3.570143 0.1142344 3.497076
v 4.311048 0.1142344 2.719927
v 4.443062 1.764297E-05 2.929447
v 5.438867 6.198883E-06 2.557271
v 5.276155 0.1142116 2.357221
v 4.63993 0.09368849 2.18901
v 5.691577 0.1142116 1.644996
v 5.947756 6.198883E-06 1.679733
v 5.66308 6.198883E-06 0.7042456
v 5.410997 0.1142116 0.6730676
v 1.84232 0.5203028 0.2322049
v 5.43419 1.764297E-05 -0.264432
v 5.887191 6.198883E-06 -1.148827
v -0.06780386 0.04422331 -0.0090518
v 1.738644 0.4845843 0.1289053
v 1.678261 0.4861355 0.2116933
v 1.717003 0.4823484 0.3065963
v 4.63993 0.09368849 2.18901
v 1.84232 0.5203028 0.2322049
v 4.999944 0.1751304 -0.9833531
v 1.443165 0.9254699 -0.8489213
v 1.361803 0.9351549 -0.897531
v 1.357251 0.9241123 -0.9927764
v 1.49814 0.9867992 -0.981688
v 3.472263 0.2205801 -3.822466
v 0.821485 0.5677829 -1.762259
v 0.7201705 0.5484462 -1.766285
v 0.6703291 0.5258355 -1.851982
v 0.7944479 0.5882258 -1.90706
v 0.6412158 0.1142116 -5.729828
v -0.4887252 0.4370813 -2.137593
v -0.566391 0.4387698 -2.068529
v -0.6633706 0.4297571 -2.102149
v -0.601368 0.4631944 -2.241406
v -2.806571 0.1142116 -4.991137
v -1.599558 0.9440761 -1.454447
v -1.619944 0.9566822 -1.361666
v -1.708949 0.9440875 -1.327909
v -1.746926 0.997694 -1.471171
v -4.945255 0.1723356 -2.286936
v -2.271832 0.9487762 -0.3369184
v -2.239262 0.9628196 -0.2452664
v -2.286206 0.9520845 -0.160573
v -2.383574 0.9938035 -0.2588649
v -5.145362 0.2241392 0.9671888
v -2.160501 0.5351105 0.8566451
v -2.082938 0.5242157 0.9227319
v -2.085197 0.5145073 1.026396
v -2.211621 0.554595 0.9845748
v -3.854876 0.15066 4.014429
v -1.069781 0.4955816 1.814964
v -0.9695616 0.5108457 1.80391
v -0.9002123 0.5257101 1.880879
v -1.027286 0.5460048 1.942574
v -0.7340088 0.2313948 5.022851
v 0.123908 0.5133553 2.012744
v 0.2072663 0.5121574 1.956275
v 0.3090372 0.5181007 1.979639
v 0.2323751 0.5476589 2.089064
v 2.734415 0.1142116 5.072488
v 1.15088 0.9016614 1.358199
v 1.1811 0.913229 1.267653
v 1.2904 0.9576631 1.380273
v 1.272444 0.9014788 1.239749
vt -12.36265 18.0235
vt -12.3489 18.00234
vt -12.38787 18.01728
vt -12.40221 18.04756
vt -12.41241 18.04636
vt -12.39529 18.08275
vt -12.40494 18.08557
vt -12.37619 18.12755
vt -12.24188 18.10113
vt -12.37725 18.15559
vt -12.4016 18.1619
vt -12.37391 18.18595
vt -12.38772 18.1263
vt -12.39515 18.00954
vt -12.3546 17.99369
vt -12.32719 17.96501
vt -12.31773 17.96987
vt -12.22994 18.05812
vt -12.31002 17.92389
vt -12.31915 17.91778
vt -12.28579 17.8958
vt -12.28062 17.90502
vt -12.24356 17.89747
vt -12.17967 18.02054
vt -12.21242 17.88232
vt -12.16793 17.90138
vt -12.24816 17.8887
vt -12.21261 17.87133
vt -12.16876 17.89003
vt -12.13412 17.8679
vt -12.13583 17.88072
vt -12.10631 17.89229
vt -12.12426 18.03342
vt -12.09997 17.88402
vt -12.07214 17.91571
vt -12.0787 17.9241
vt -12.04054 17.9426
vt -12.03754 17.93261
vt -11.99626 17.93435
vt -12.00111 17.94407
vt -12.01363 17.95231
vt -11.96862 17.96231
vt -11.97821 17.96727
vt -12.08462 18.07032
vt -11.9697 18.00653
vt -11.96518 18.04731
vt -11.95975 18.00095
vt -11.95503 18.04218
vt -11.9231 18.06897
vt -11.93317 18.07389
vt -11.95751 18.07437
vt -11.91881 18.10929
vt -11.92927 18.1099
vt -12.07253 18.11836
vt -11.93344 18.14347
vt -11.92362 18.14773
vt -11.95238 18.18147
vt -11.9638 18.17877
vt -11.94221 18.22274
vt -11.95322 18.22136
vt -11.96247 18.21288
vt -11.96028 18.25854
vt -11.96944 18.2534
vt -12.10441 18.17808
vt -11.99195 18.27811
vt -11.98634 18.28704
vt -12.0303 18.29916
vt -12.03776 18.2906
vt -12.06624 18.3009
vt -12.05373 18.32445
vt -12.0916 18.3106
vt -12.04722 18.33676
vt -12.08929 18.3221
vt -12.14799 18.20257
vt -12.12558 18.3399
vt -12.16116 18.36459
vt -12.12367 18.35158
vt -12.15897 18.37535
vt -12.19969 18.36628
vt -12.19846 18.35636
vt -12.23228 18.34924
vt -12.19751 18.19163
vt -12.23855 18.3584
vt -12.26079 18.31694
vt -12.25369 18.30886
vt -12.29344 18.29018
vt -12.2956 18.30036
vt -12.33968 18.30129
vt -12.33626 18.29105
vt -12.31367 18.27472
vt -12.36335 18.27004
vt -12.37281 18.27538
vt -12.37644 18.23293
vt -12.36737 18.22767
vt -12.23489 18.15395
vt -12.38334 18.19158
vt -12.41526 18.16376
vt -12.65431 18.3431
vt -12.7253 18.38198
vt -12.72245 18.38348
vt -12.72272 18.38678
vt -12.79629 18.50284
vt -12.72792 18.38658
vt -12.85647 18.38937
vt -12.73557 18.3324
vt -12.7341 18.33055
vt -12.735 18.32883
vt -12.73956 18.32988
vt -12.84098 18.25384
vt -12.7198 18.28853
vt -12.71686 18.28765
vt -12.71626 18.28409
vt -12.72152 18.28372
vt -12.76281 18.13611
vt -12.66834 18.25006
vt -12.665 18.25138
vt -12.66257 18.24893
vt -12.66621 18.24466
vt -12.62027 18.11311
vt -12.60735 18.2567
vt -12.6061 18.25884
vt -12.60394 18.25857
vt -12.60332 18.25367
vt -12.49671 18.18734
vt -12.56321 18.29571
vt -12.56336 18.29827
vt -12.56138 18.29972
vt -12.55873 18.2961
vt -12.44108 18.30902
vt -12.55474 18.34649
vt -12.55669 18.34913
vt -12.55519 18.35264
vt -12.55102 18.34967
vt -12.44484 18.44362
vt -12.58546 18.40446
vt -12.58901 18.40528
vt -12.58988 18.40867
vt -12.58481 18.4097
vt -12.54871 18.53133
vt -12.62987 18.43005
vt -12.63311 18.42898
vt -12.63567 18.43134
vt -12.63188 18.43429
vt -12.67641 18.58613
vt -12.68458 18.4256
vt -12.68552 18.42399
vt -12.68794 18.42894
vt -12.68795 18.42434
vn 0.07932943 0.9767552 -0.1991384
vn 0.02635968 0.9734446 -0.2273999
vn 0.1207121 0.9453045 -0.3030314
vn 0.2200304 0.9668234 -0.129766
vn 0.3673525 0.9088877 -0.1974216
vn 0.2746555 0.9602022 -0.05075601
vn 0.4302541 0.9022664 -0.02822544
vn 0.2547918 0.9635128 -0.08200072
vn 0.2134092 0.9734446 -0.08283745
vn 0.1571288 0.986687 -0.0419439
vn 0.2696895 0.9585468 -0.0919542
vn 0.1553964 0.9878522 0
vn 0.3441783 0.9221302 -0.1766841
vn 0.1339545 0.9138536 -0.3833117
vn 0.08429533 0.9055771 -0.4157215
vn 0.2862426 0.9088877 -0.3032959
vn 0.1405757 0.9800659 -0.14039
vn 0.06774229 0.9883423 -0.1363466
vn 0.109125 0.9800659 -0.1660199
vn 0.2514812 0.9171643 -0.309139
vn 0.01311725 0.9055771 -0.4239788
vn 0.004840732 0.9850318 -0.1723048
vn -0.01005703 0.9883423 -0.1519153
vn -0.03157598 0.9933082 -0.1110931
vn -0.06468213 0.9850318 -0.1597767
vn -0.04647374 0.9883423 -0.1449813
vn -0.03157598 0.9006112 -0.433477
vn -0.1623451 0.9171643 -0.363942
vn -0.129239 0.9221302 -0.364655
vn -0.1275837 0.9304066 -0.3436072
vn -0.0994435 0.9668234 -0.2352946
vn -0.2467657 0.9535809 -0.1725983
vn -0.2285573 0.9552363 -0.1878437
vn -0.3444287 0.9171643 -0.200446
vn -0.3593264 0.9072325 -0.2186636
vn -0.2815271 0.9453045 -0.1647483
vn -0.1987618 0.9419938 -0.2704468
vn -0.2434551 0.9055771 -0.3473611
vn -0.2815271 0.9155089 -0.2873777
vn -0.2451103 0.9370279 -0.2487964
vn -0.1921406 0.9651681 -0.1775743
vn -0.4040197 0.9138536 -0.04049424
vn -0.2765611 0.9602022 -0.03906097
vn -0.26994 0.9618575 -0.04430126
vn -0.303046 0.9519257 0.04472774
vn -0.3113225 0.9502704 -0.008034416
vn -0.4073302 0.9088877 0.08947246
vn -0.3940879 0.9171643 -0.05919844
vn -0.3940879 0.9171643 -0.05919844
vn -0.324565 0.9453045 -0.03251198
vn -0.1837873 0.9829661 0
vn -0.3924325 0.9072325 0.1514132
vn -0.1689664 0.9817211 0.08760159
vn -0.1110306 0.9899977 0.08704495
vn -0.1342049 0.9817211 0.1349543
vn -0.2831824 0.9121984 0.296145
vn -0.3162885 0.9237855 0.2158285
vn -0.150758 0.9833764 0.1012068
vn -0.3543605 0.9171643 0.1823139
vn -0.3013907 0.9403386 0.1578831
vn -0.10772 0.991653 0.07085674
vn -0.2302126 0.9088877 0.3477432
vn -0.08951169 0.986687 0.1357806
vn -0.05143964 0.991653 0.1182296
vn -0.02661008 0.9833764 0.1796182
vn -0.04978436 0.910543 0.4104058
vn -0.1044094 0.9221302 0.3725247
vn -0.05143964 0.9850318 0.1645185
vn -0.01005703 0.9899977 0.1407248
vn 0.01146191 0.9552363 0.2956219
vn 0.04291272 0.9833764 0.176435
vn -0.01833355 0.9436491 0.3304394
vn 0.06939763 0.9237855 0.3765691
vn 0.01808316 0.991653 0.1276608
vn -0.05143964 0.9817211 0.183242
vn 0.03794682 0.9850318 0.168144
vn -0.1060647 0.9088877 0.403328
vn 0.06608701 0.9204748 0.3851735
vn 0.2382388 0.9039218 0.3552009
vn 0.109125 0.9800659 0.1660199
vn 0.2167198 0.9651681 0.1465714
vn 0.2084433 0.9684787 0.1363831
vn 0.3474889 0.9171643 0.1950928
vn 0.3772844 0.910543 0.1690203
vn 0.2713448 0.9552363 0.11788
vn 0.2034773 0.9635128 0.1738965
vn 0.2299622 0.9088877 0.3479089
vn 0.2531365 0.9138536 0.31748
vn 0.1521628 0.970134 0.1889088
vn 0.08595067 0.9899977 0.1118798
vn 0.1571288 0.986687 0.0419439
vn 0.4021139 0.9138536 0.05635631
vn 0.4203223 0.9006112 -0.1105828
vn 0.1571288 0.986687 -0.0419439
vn 0.1008422 0.9949024 0
vn 0.4087352 0.9121984 0.02880445
vn 0.3193487 0.9419938 -0.1032672
vn 0.04291272 0.9982741 0.04009039
vn -0.1342049 0.7897057 -0.5986267
vn -0.2417998 0.970134 -0.01931182
vn -0.2782165 0.7648762 0.5809992
vn 0.2249963 0.8393649 -0.4948162
vn -0.0564056 0.9982741 0.01634466
vn 0.08760595 0.829433 0.5516938
vn 0.1438863 0.5678949 0.8104271
vn -0.3990538 0.8873687 0.2309391
vn -0.6639026 0.4470575 -0.5994772
vn -0.08123517 0.9966189 0.01231156
vn -0.3560159 0.8873687 -0.2929666
vn 0.4352201 0.7863951 0.4383676
vn -0.3344968 0.9353727 0.1148473
vn -0.6539708 0.753289 -0.06984171
vn -0.1738853 0.9847659 0
vn -0.02494879 0.9996887 0
vn 0.4550837 0.8890241 0.05034864
vn -0.005091131 0.9817211 0.190257
vn -0.498372 0.8195012 0.2829188
vn -0.01667827 0.9982741 0.05630764
vn 0.5063982 0.8195012 -0.2682883
vn 0.6934476 0.6158987 -0.3738973
vn 0.3011403 0.9171643 0.2610062
vn -0.3477393 0.5331334 0.7712627
vn 0.03794682 0.9982741 0.04481893
vn 0.04953396 0.9966189 -0.0655521
vn 0.3425229 0.6208646 -0.7051278
vn 0.3822503 0.9237855 0.02247288
vn 0.1703712 0.5894138 0.7896613
vn 0.004840732 0.9999295 -0.01084435
vn 0.1289886 0.8360543 0.5332685
vn -0.09447759 0.7681867 -0.6332164
vn 0.2365425 0.9716212 0
vn 0.3607313 0.8774369 0.316192
vn 0.06774229 0.9966189 0.04649389
vn 0.08760595 0.9949636 0.04870957
vn -0.4305045 0.7963269 -0.4248873
vn -0.06468213 0.9585468 -0.2774964
vn 0.5494361 0.834399 0.04356867
vn -0.07792455 0.991653 -0.1027232
vn 0.07105291 0.9966189 -0.0412576
vn -0.6192093 0.7781187 -0.1054091
vn -0.06633741 0.9717893 -0.2263292
vn 0.4832239 0.829433 -0.2802418
vn 0.008151352 0.9982741 -0.05815725
vn -0.3692582 0.9088877 0.1938338
vn -0.7764633 0.4685766 0.4213557
vn -0.2997354 0.9022664 -0.309958
vn -0.08123517 0.9966189 0.01231156
vn 0.3408677 0.5827926 -0.7376734
g ShadowCollision_0
f 3/3/3 2/2/2 1/1/1
f 3/3/3 1/1/1 4/4/4
f 3/3/3 4/4/4 5/5/5
f 5/5/5 4/4/4 6/6/6
f 7/7/7 5/5/5 6/6/6
f 7/7/7 6/6/6 8/8/8
f 8/8/8 6/6/6 9/9/9
f 6/6/6 4/4/4 9/9/9
f 9/9/9 4/4/4 1/1/1
f 8/8/8 9/9/9 10/10/10
f 8/8/8 10/10/10 11/11/11
f 11/11/11 10/10/10 12/12/12
f 13/13/13 7/7/7 8/8/8
f 14/14/14 3/3/3 5/5/5
f 15/15/15 2/2/2 3/3/3
f 14/14/14 15/15/15 3/3/3
f 15/15/15 16/16/16 2/2/2
f 16/16/16 17/17/17 2/2/2
f 2/2/2 17/17/17 18/18/18
f 19/19/19 18/18/18 17/17/17
f 2/2/2 18/18/18 1/1/1
f 17/17/17 16/16/16 20/20/20
f 19/19/19 17/17/17 20/20/20
f 19/19/19 20/20/20 21/21/21
f 22/22/22 19/19/19 21/21/21
f 19/19/19 22/22/22 18/18/18
f 23/23/23 22/22/22 21/21/21
f 23/23/23 24/24/24 22/22/22
f 25/25/25 24/24/24 23/23/23
f 26/26/26 24/24/24 25/25/25
f 27/27/27 23/23/23 21/21/21
f 23/23/23 27/27/27 28/28/28
f 25/25/25 23/23/23 28/28/28
f 25/25/25 28/28/28 29/29/29
f 26/26/26 25/25/25 29/29/29
f 26/26/26 29/29/29 30/30/30
f 31/31/31 26/26/26 30/30/30
f 26/26/26 31/31/31 24/24/24
f 32/32/32 31/31/31 30/30/30
f 32/32/32 33/33/33 31/31/31
f 34/34/34 32/32/32 30/30/30
f 34/34/34 35/35/35 32/32/32
f 35/35/35 36/36/36 32/32/32
f 32/32/32 36/36/36 33/33/33
f 37/37/37 33/33/33 36/36/36
f 36/36/36 35/35/35 38/38/38
f 37/37/37 36/36/36 38/38/38
f 37/37/37 38/38/38 39/39/39
f 40/40/40 37/37/37 39/39/39
f 40/40/40 41/41/41 37/37/37
f 33/33/33 37/37/37 41/41/41
f 39/39/39 42/42/42 40/40/40
f 42/42/42 43/43/43 40/40/40
f 40/40/40 43/43/43 41/41/41
f 43/43/43 44/44/44 41/41/41
f 45/45/45 44/44/44 43/43/43
f 45/45/45 43/43/43 42/42/42
f 45/45/45 46/46/46 44/44/44
f 47/47/47 45/45/45 42/42/42
f 48/48/48 46/46/46 45/45/45
f 47/47/47 48/48/48 45/45/45
f 48/48/48 49/49/49 46/46/46
f 49/49/49 50/50/50 46/46/46
f 46/46/46 50/50/50 51/51/51
f 46/46/46 51/51/51 44/44/44
f 49/49/49 52/52/52 50/50/50
f 52/52/52 53/53/53 50/50/50
f 50/50/50 53/53/53 51/51/51
f 53/53/53 54/54/54 51/51/51
f 55/55/55 54/54/54 53/53/53
f 53/53/53 52/52/52 56/56/56
f 55/55/55 53/53/53 56/56/56
f 56/56/56 57/57/57 55/55/55
f 57/57/57 58/58/58 55/55/55
f 55/55/55 58/58/58 54/54/54
f 57/57/57 59/59/59 58/58/58
f 59/59/59 60/60/60 58/58/58
f 58/58/58 60/60/60 61/61/61
f 58/58/58 61/61/61 54/54/54
f 59/59/59 62/62/62 60/60/60
f 62/62/62 63/63/63 60/60/60
f 60/60/60 63/63/63 61/61/61
f 63/63/63 64/64/64 61/61/61
f 65/65/65 64/64/64 63/63/63
f 63/63/63 62/62/62 66/66/66
f 65/65/65 63/63/63 66/66/66
f 66/66/66 67/67/67 65/65/65
f 67/67/67 68/68/68 65/65/65
f 65/65/65 68/68/68 64/64/64
f 68/68/68 69/69/69 64/64/64
f 70/70/70 69/69/69 68/68/68
f 70/70/70 68/68/68 67/67/67
f 70/70/70 71/71/71 69/69/69
f 72/72/72 70/70/70 67/67/67
f 73/73/73 71/71/71 70/70/70
f 72/72/72 73/73/73 70/70/70
f 69/69/69 71/71/71 74/74/74
f 75/75/75 74/74/74 71/71/71
f 75/75/75 71/71/71 73/73/73
f 76/76/76 74/74/74 75/75/75
f 77/77/77 75/75/75 73/73/73
f 75/75/75 77/77/77 78/78/78
f 76/76/76 75/75/75 78/78/78
f 76/76/76 78/78/78 79/79/79
f 80/80/80 76/76/76 79/79/79
f 76/76/76 80/80/80 74/74/74
f 81/81/81 80/80/80 79/79/79
f 81/81/81 82/82/82 80/80/80
f 83/83/83 81/81/81 79/79/79
f 83/83/83 84/84/84 81/81/81
f 84/84/84 85/85/85 81/81/81
f 81/81/81 85/85/85 82/82/82
f 86/86/86 82/82/82 85/85/85
f 85/85/85 84/84/84 87/87/87
f 86/86/86 85/85/85 87/87/87
f 87/87/87 88/88/88 86/86/86
f 88/88/88 89/89/89 86/86/86
f 86/86/86 89/89/89 90/90/90
f 82/82/82 86/86/86 90/90/90
f 91/91/91 90/90/90 89/89/89
f 89/89/89 88/88/88 92/92/92
f 91/91/91 89/89/89 92/92/92
f 92/92/92 93/93/93 91/91/91
f 93/93/93 94/94/94 91/91/91
f 91/91/91 94/94/94 95/95/95
f 91/91/91 95/95/95 90/90/90
f 94/94/94 12/12/12 95/95/95
f 96/96/96 12/12/12 94/94/94
f 93/93/93 96/96/96 94/94/94
f 11/11/11 12/12/12 96/96/96
f 97/97/97 11/11/11 96/96/96
f 8/8/8 11/11/11 97/97/97
f 13/13/13 8/8/8 97/97/97
f 95/95/95 12/12/12 10/10/10
f 100/100/100 99/99/99 98/98/98
f 101/101/101 100/100/100 98/98/98
f 98/98/98 102/102/102 101/101/101
f 103/103/103 101/101/101 102/102/102
f 99/99/99 100/100/100 103/103/103
f 101/101/101 103/103/103 100/100/100
f 99/99/99 103/103/103 104/104/104
f 98/98/98 99/99/99 104/104/104
f 98/98/98 104/104/104 105/105/105
f 105/105/105 106/106/106 98/98/98
f 106/106/106 107/107/107 98/98/98
f 108/108/108 105/105/105 104/104/104
f 107/107/107 106/106/106 108/108/108
f 105/105/105 108/108/108 106/106/106
f 107/107/107 108/108/108 109/109/109
f 98/98/98 107/107/107 109/109/109
f 98/98/98 109/109/109 110/110/110
f 110/110/110 111/111/111 98/98/98
f 111/111/111 112/112/112 98/98/98
f 113/113/113 110/110/110 109/109/109
f 112/112/112 111/111/111 113/113/113
f 110/110/110 113/113/113 111/111/111
f 112/112/112 113/113/113 114/114/114
f 98/98/98 112/112/112 114/114/114
f 98/98/98 114/114/114 115/115/115
f 115/115/115 116/116/116 98/98/98
f 116/116/116 117/117/117 98/98/98
f 118/118/118 115/115/115 114/114/114
f 117/117/117 116/116/116 118/118/118
f 115/115/115 118/118/118 116/116/116
f 117/117/117 118/118/118 119/119/119
f 98/98/98 117/117/117 119/119/119
f 98/98/98 119/119/119 120/120/120
f 120/120/120 121/121/121 98/98/98
f 121/121/121 122/122/122 98/98/98
f 123/123/123 120/120/120 119/119/119
f 122/122/122 121/121/121 123/123/123
f 120/120/120 123/123/123 121/121/121
f 122/122/122 123/123/123 124/124/124
f 98/98/98 122/122/122 124/124/124
f 98/98/98 124/124/124 125/125/125
f 125/125/125 126/126/126 98/98/98
f 126/126/126 127/127/127 98/98/98
f 128/128/128 125/125/125 124/124/124
f 127/127/127 126/126/126 128/128/128
f 125/125/125 128/128/128 126/126/126
f 127/127/127 128/128/128 129/129/129
f 98/98/98 127/127/127 129/129/129
f 98/98/98 129/129/129 130/130/130
f 130/130/130 131/131/131 98/98/98
f 131/131/131 132/132/132 98/98/98
f 133/133/133 130/130/130 129/129/129
f 132/132/132 131/131/131 133/133/133
f 130/130/130 133/133/133 131/131/131
f 132/132/132 133/133/133 134/134/134
f 98/98/98 132/132/132 134/134/134
f 98/98/98 134/134/134 135/135/135
f 135/135/135 136/136/136 98/98/98
f 136/136/136 137/137/137 98/98/98
f 138/138/138 135/135/135 134/134/134
f 137/137/137 136/136/136 138/138/138
f 135/135/135 138/138/138 136/136/136
f 137/137/137 138/138/138 139/139/139
f 98/98/98 137/137/137 139/139/139
f 98/98/98 139/139/139 140/140/140
f 140/140/140 141/141/141 98/98/98
f 141/141/141 142/142/142 98/98/98
f 143/143/143 140/140/140 139/139/139
f 142/142/142 141/141/141 143/143/143
f 140/140/140 143/143/143 141/141/141
f 142/142/142 143/143/143 144/144/144
f 98/98/98 142/142/142 144/144/144
f 98/98/98 144/144/144 145/145/145
f 145/145/145 146/146/146 98/98/98
f 147/147/147 145/145/145 144/144/144
f 145/145/145 147/147/147 146/146/146
f 148/148/148 146/146/146 147/147/147
f 146/146/146 148/148/148 98/98/98
f 148/148/148 147/147/147 102/102/102
f 98/98/98 148/148/148 102/102/102
