g ShadowCollision
v -11.64651 3.782185 -5.505273
v -11.18768 3.782185 -9.861731
v -7.616447 3.782185 -14.88417
v 4.503527 3.782185 -14.26387
v 8.511023 3.782185 -7.217633
v 13.61577 3.782185 -9.075289
v -9.906984 3.782185 3.385727
v -13.44742 3.782185 5.423967
v -13.71521 3.782185 -4.174353
v -8.905949 3.782185 8.502195
v 12.21515 3.782185 -2.75551
v 7.624026 3.782185 4.842129
v 9.542719 3.782185 5.00886
v 12.69169 3.782185 0.1004562
v -8.385004 3.782185 12.27627
v -2.817799 3.782185 12.7483
v 0.9930153 3.782185 14.88417
v 13.71521 3.782185 -5.313702
vt 0.5488834 0.8278495
vt 0.5558191 0.8936355
vt 0.6097468 0.9694734
vt 0.7927711 0.9601108
vt 0.8532759 0.8537034
vt 0.9303685 0.8817633
vt 0.5751508 0.6935821
vt 0.521692 0.6628057
vt 0.517652 0.8077456
vt 0.5902771 0.6163239
vt 0.9092167 0.7863318
vt 0.8398871 0.6715891
vt 0.8688571 0.6690795
vt 0.9164144 0.7432007
vt 0.5981367 0.5593352
vt 0.6822064 0.5522065
vt 0.7397466 0.5199547
vt 0.9318715 0.8249539
vn 0 1 0
vn 0 1 0
vn 0 1 0
vn 0 1 0
vn 0 1 0
vn 0 1 0
vn 0 1 0
vn 0 1 0
vn 0 1 0
vn 0 1 0
vn 0 1 0
vn 0 1 0
vn 0 1 0
vn 0 1 0
vn 0 1 0
vn 0 1 0
vn 0 1 0
vn 0 1 0
g ShadowCollision_0
f 3/3/3 2/2/2 1/1/1
f 4/4/4 3/3/3 1/1/1
f 5/5/5 4/4/4 1/1/1
f 5/5/5 6/6/6 4/4/4
f 7/7/7 5/5/5 1/1/1
f 8/8/8 7/7/7 1/1/1
f 9/9/9 8/8/8 1/1/1
f 8/8/8 10/10/10 7/7/7
f 11/11/11 5/5/5 7/7/7
f 5/5/5 11/11/11 6/6/6
f 7/7/7 12/12/12 11/11/11
f 7/7/7 10/10/10 12/12/12
f 12/12/12 13/13/13 11/11/11
f 13/13/13 14/14/14 11/11/11
f 10/10/10 15/15/15 12/12/12
f 15/15/15 16/16/16 12/12/12
f 16/16/16 17/17/17 12/12/12
f 11/11/11 18/18/18 6/6/6
